<svg version="1" xmlns="http://www.w3.org/2000/svg" width="682.667" height="682.667" viewBox="0 0 512.000000 512.000000"><path d="M288.2 7.7c-15.5 17.6-23.3 30.1-27.3 44.1-1.7 6.1-2.1 20.1-.6 25.8 1.4 5.4 6.5 16.8 12 26.8 7.2 13.3 12.1 23.9 13.1 28.6.4 1.9 1 4.8 1.4 6.5.3 1.6.6 6.7.5 11.1 0 9.4-2.7 19.2-7.9 29.6-5.1 10.1-5 10.1 5.1-1.7 6-6.9 7-8.2 12.2-16 4.7-7 8.4-18 8.7-25.9.5-9.4-2.3-18.1-10.1-32.4-6.6-11.9-11.1-21.1-12.5-25.7-3.9-12.1-4.7-27.3-2.2-38.5.8-3.6 1.7-7.6 2-9 .6-3 7.3-20.1 8.4-21.5 1-1.3 4-8.5 3.6-8.5-.2 0-3.1 3-6.4 6.7zM223.3 65.2c-16.8 24.4-20.7 42-13.2 59.3.7 1.6 1.3 3.4 1.3 3.9.1.6.9 1.9 1.8 3 3.7 4.4 14.6 20.4 17.6 25.6 5.3 9.7 7.7 22.8 5.8 32-.9 3.9-3.2 12.3-4.1 14.2-.4 1-.3 1.8.3 1.8 1.1 0 9.9-14.3 12.9-21 4.5-10.3 5.4-22 2.1-29.6-.6-1.6-5.8-9.9-11.4-18.4-12.5-19-14.6-24.6-15-39-.3-11.2.8-18.3 4.9-31.3 1.4-4.2 2.4-7.7 2.2-7.7-.1 0-2.5 3.3-5.2 7.2zM233.8 220.5c-.2.1-7.3.5-15.8.9s-16.8.9-18.5 1.1c-1.6.2-6.1.6-10 .9-19.1 1.7-38.9 4.9-55.8 9.2-22.5 5.7-36.3 13.5-40.3 23-1 2.3-1.2 6.8-.8 16.6.2 7.4.6 14.4.9 15.5.4 2.3 1.4 9.1 2 13.8 2.3 18.7 14.9 53.6 24.5 68 1.5 2.2 2.9 4.4 3.1 5 .5 1.3 8.2 12.9 9 13.5.3.3 3 3.4 6 7 10.7 12.9 25.2 25.9 38.8 34.9 4.8 3.2 10.5 7.6 12.6 10 6.1 6.8 17.4 12.3 30.5 15 10.7 2.3 15.8 2.6 38 2.6 19.6-.1 23.8-.4 33-2.4 13.7-3 23.1-7.4 30-14.1 3-2.9 8.7-7.4 12.5-10 10.9-7.3 21.7-16.2 31.2-25.9 8.8-8.8 8.8-8.8 18-11.4 23.3-6.6 49.2-17.6 66.3-28.2 10.2-6.4 23.8-18.9 28.6-26.5 6.7-10.7 8.8-24.4 5-33.5-.9-2.1-1.4-4.5-1.1-5.2.2-.8.1-1.2-.3-.9-.5.3-2.4-1.5-4.3-3.9-3.4-4.3-12.8-11.1-18.4-13.3-5.4-2.2-15.9-3.9-22-3.7-6.5.3-13.2 1.2-14.5 2-1.8 1.1-2.5-2.5-2.5-13.1 0-10.7-.1-11.2-3-15.4-1.6-2.4-5-5.6-7.5-7.1s-5.2-3.3-6-4.1c-.8-.7-1.9-1.3-2.5-1.3-.5 0-3.7-1.1-7-2.4-3.3-1.2-6.7-2.4-7.6-2.6-.9-.2-5.2-1.3-9.5-2.4-8.4-2.1-21-4.6-28.4-5.5-2.5-.3-5.4-.8-6.5-1-1.1-.2-5-.7-8.7-1-3.7-.4-7.7-.9-9-1.1-2.2-.3-9.9-.9-26.9-2.1-7.4-.5-62.6-1.3-63.1-.9zm64.7 9.9c5.5.4 11.8.8 14 1.1 2.2.2 7.4.7 11.5 1 4.1.3 10.2 1 13.5 1.5 3.3.5 7.8 1.2 10 1.5 2.2.3 5.1.7 6.5 1 1.4.3 5.2 1 8.5 1.6 19 3.4 36.9 10 43.8 16.1 5.4 4.8 5.8 8.5 1.5 13.3-2.9 3.4-14.1 9.7-19.7 11.1-.9.2-4.1 1.1-7.1 2-13.6 3.9-29.6 6.8-55 9.9-29.6 3.6-101.5 4.1-130.3 1-1.7-.2-5.9-.6-9.2-1-7.1-.7-9.9-1.1-23.2-3-6.1-.9-14.1-2.5-25-5.1-23.4-5.5-37.3-13.4-37.3-21.1 0-2.8 5.7-8.7 11-11.6 6.1-3.3 19-7.7 27-9.2.8-.2 3.3-.8 5.5-1.3 2.2-.6 5.4-1.3 7-1.5 1.7-.3 6.2-1 10-1.7 12.7-2 15.7-2.4 28-3.6 3.9-.3 7.8-.8 8.7-.9.9-.2 7.9-.7 15.5-1 7.6-.4 13.9-.8 14.1-1 .5-.4 61.1.3 70.7.9zm155 66.7c12.4 5.8 16.7 19.5 10.3 32.8-2 4.1-10.8 13.9-16.4 18.2-5.1 4-23.6 13-27.4 13.4-.3 0-.9.3-1.5.7-1.2.7-11.2 3.6-17 4.8-2.2.5-4.8 1.2-5.7 1.5-2.6 1-2.3-1.7.7-7.2 5.5-9.8 14.5-33.4 16.9-44.4.9-4.3 15.3-18.4 20.6-20.2 6.5-2.3 14.2-2.1 19.5.4z"/><path d="M83.4 345.5c-22.6 7.5-40.3 17.2-50.6 27.6-12 12.2-15.1 26.2-8.8 39.5 2.8 5.9 14.6 17.8 21.5 21.8 13.9 8 24.4 15 23.8 15.9-.3.6-.1.7.6.3.7-.5 3.9.8 7.4 2.9 7.9 4.8 41.2 21 54.2 26.5 5.5 2.3 11.9 5.2 14.2 6.5 2.3 1.3 5.9 2.9 8 3.5 2.1.7 4.3 1.6 4.8 2 2.1 1.6 30.2 10.7 39 12.5 5.8 1.3 12.4 2.6 15.9 3.1 2.1.3 4.8.7 5.9 1 6 1.1 21.3 1.9 37.7 1.9 21.7 0 31.1-.8 48-4.1 4.1-.9 8.7-1.7 10.2-2 15.7-2.9 45.4-14.6 89.3-35.5 3.9-1.8 7.5-3.3 8-3.3.6-.1 1.2-.4 1.5-.7.3-.3 5-3 10.5-5.9 5.5-2.9 15.1-8.4 21.3-12.2 6.2-3.7 11.5-6.8 11.8-6.8.3 0 1-.5 1.7-1 .7-.6 4-2.8 7.4-5 29.9-18.9 32.7-46.6 6.8-66.1-5.7-4.3-7-4.3-10.8-.1-1.8 2-1.7 2.1 3.5 6 38.1 28.2 6.1 61-77.2 79.1-8 1.8-16.1 3.4-18 3.7-1.9.3-7.3 1.1-12 1.9-4.7.8-11.2 1.7-14.5 2-3.3.4-7.1.9-8.5 1.1-1.4.2-5.9.6-10 1-4.1.3-8.6.8-10 1-15.7 2.5-93.3 2.5-119.5 0-2.2-.3-6.9-.7-10.5-1-9.3-.8-14.1-1.4-26.5-3.2-60.9-8.9-103.6-23.9-120.9-42.4-20.9-22.3-3.3-45.4 47.8-63 6.6-2.2 12.2-4.2 12.4-4.5.9-.9-2.3-7.5-3.8-7.5-.8.1-6 1.6-11.6 3.5z"/></svg>