<svg xmlns="http://www.w3.org/2000/svg" width="12" height="14" viewBox="0 0 12 14"><path d="M6 1q1.6 0 3 0.8t2.2 2.2 0.8 3q0 2-1.1 3.5t-3 2.2q-0.2 0-0.3-0.1t-0.1-0.2q0 0 0-0.6t0-1.1q0-0.8-0.4-1.1 0.4 0 0.8-0.1t0.7-0.3 0.6-0.5 0.4-0.8 0.2-1.2q0-0.9-0.6-1.6 0.3-0.7-0.1-1.6-0.2-0.1-0.6 0.1t-0.7 0.3l-0.3 0.2q-0.7-0.2-1.5-0.2t-1.5 0.2q-0.1-0.1-0.3-0.2t-0.7-0.3-0.7-0.1q-0.4 0.9-0.1 1.6-0.6 0.7-0.6 1.6 0 0.7 0.2 1.2t0.4 0.8 0.6 0.5 0.7 0.3 0.8 0.1q-0.3 0.3-0.4 0.8-0.2 0.1-0.4 0.1t-0.4 0-0.5-0.2-0.4-0.5q-0.1-0.2-0.4-0.4t-0.4-0.2l-0.2 0q-0.2 0-0.2 0t0 0.1 0.1 0.1 0.1 0.1l0.1 0q0.2 0.1 0.3 0.3t0.2 0.4l0.1 0.2q0.1 0.3 0.3 0.5t0.5 0.2 0.5 0.1 0.4 0l0.2 0q0 0.3 0 0.7t0 0.4q0 0.1-0.1 0.2t-0.3 0.1q-1.8-0.6-3-2.2t-1.1-3.5q0-1.6 0.8-3t2.2-2.2 3-0.8zM2.3 9.6q0-0.1-0.1-0.1-0.1 0-0.1 0 0 0.1 0.1 0.1 0.1 0 0.1 0zM2.5 9.9q0.1 0 0-0.1-0.1-0.1-0.1 0-0.1 0 0 0.1 0.1 0.1 0.1 0zM2.8 10.2q0.1-0.1 0-0.1-0.1-0.1-0.1 0-0.1 0 0 0.1t0.1 0.1zM3.1 10.6q0.1-0.1 0-0.1-0.1-0.1-0.2 0-0.1 0.1 0 0.1 0.1 0.1 0.2 0zM3.5 10.8q0-0.1-0.1-0.1-0.1 0-0.1 0.1t0.1 0.1q0.1 0 0.1 0zM4 10.8q0-0.1-0.1-0.1-0.1 0-0.1 0.1 0 0.1 0.1 0.1 0.1 0 0.1-0.1zM4.5 10.7q0-0.1-0.1-0.1-0.1 0-0.1 0.1t0.1 0.1 0.1-0.1z"/></svg>