<?xml version="1.0" encoding="UTF-8"?><svg xmlns="http://www.w3.org/2000/svg" width="370" height="560" version="1.0" shape-rendering="geometricPrecision"><defs><filter id="shadowBlur" x="0" y="0" width="200%" height="200%"><feOffset in="SourceGraphic" dx="3.0003002" dy="3.0003002" result="offOut"></feOffset><feGaussianBlur in="offOut" stdDeviation="3"></feGaussianBlur></filter></defs><g stroke-width="1" stroke-linecap="square" stroke-linejoin="round"><rect x="0" y="0" width="370" height="560" style="fill: #ffffff"></rect><path stroke="#969696" fill="#969696" filter="url(#shadowBlur)" d="M35.0 49.0 L345.0 49.0 L345.0 91.0 L35.0 91.0 z"></path><path stroke="#969696" fill="#969696" filter="url(#shadowBlur)" d="M35.0 147.0 L345.0 147.0 L345.0 189.0 L35.0 189.0 z"></path><path stroke="#969696" fill="#969696" filter="url(#shadowBlur)" d="M35.0 259.0 L345.0 259.0 L345.0 301.0 L35.0 301.0 z"></path><path stroke="#969696" fill="#969696" filter="url(#shadowBlur)" d="M35.0 371.0 L345.0 371.0 L345.0 413.0 L35.0 413.0 z"></path><path stroke="#969696" fill="#969696" filter="url(#shadowBlur)" d="M35.0 483.0 L345.0 483.0 L345.0 511.0 L35.0 511.0 z"></path><path stroke="#000000" stroke-width="1.0" stroke-linecap="round" stroke-linejoin="round" fill="white" d="M35.0 49.0 L345.0 49.0 L345.0 91.0 L35.0 91.0 z"></path><path stroke="#000000" stroke-width="1.0" stroke-linecap="round" stroke-linejoin="round" fill="white" d="M35.0 147.0 L345.0 147.0 L345.0 189.0 L35.0 189.0 z"></path><path stroke="#000000" stroke-width="1.0" stroke-linecap="round" stroke-linejoin="round" fill="white" d="M35.0 259.0 L345.0 259.0 L345.0 301.0 L35.0 301.0 z"></path><path stroke="#000000" stroke-width="1.0" stroke-linecap="round" stroke-linejoin="round" fill="white" d="M35.0 371.0 L345.0 371.0 L345.0 413.0 L35.0 413.0 z"></path><path stroke="#000000" stroke-width="1.0" stroke-linecap="round" stroke-linejoin="round" fill="white" d="M35.0 483.0 L345.0 483.0 L345.0 511.0 L35.0 511.0 z"></path><path stroke="none" stroke-width="1.0" stroke-linecap="round" stroke-linejoin="round" fill="#000000" d="M180.0 126.0 L185.0 140.0 L190.0 126.0 z"></path><path stroke="none" stroke-width="1.0" stroke-linecap="round" stroke-linejoin="round" fill="#000000" d="M170.0 238.0 L175.0 252.0 L180.0 238.0 z"></path><path stroke="none" stroke-width="1.0" stroke-linecap="round" stroke-linejoin="round" fill="#000000" d="M170.0 350.0 L175.0 364.0 L180.0 350.0 z"></path><path stroke="none" stroke-width="1.0" stroke-linecap="round" stroke-linejoin="round" fill="#000000" d="M170.0 462.0 L175.0 476.0 L180.0 462.0 z"></path><path stroke="#000000" stroke-width="1.0" stroke-linecap="round" stroke-linejoin="round" fill="none" d="M185.0 105.0 L185.0 133.0 "></path><path stroke="#000000" stroke-width="1.0" stroke-linecap="round" stroke-linejoin="round" fill="none" d="M175.0 217.0 L175.0 245.0 "></path><path stroke="#000000" stroke-width="1.0" stroke-linecap="round" stroke-linejoin="round" fill="none" d="M175.0 329.0 L175.0 357.0 "></path><path stroke="#000000" stroke-width="1.0" stroke-linecap="round" stroke-linejoin="round" fill="none" d="M175.0 441.0 L175.0 469.0 "></path><text x="50" y="68" font-family="sans-serif" font-size="15" stroke="none" fill="#000000"><![CDATA[Read .class files]]></text><text x="50" y="82" font-family="sans-serif" font-size="15" stroke="none" fill="#000000"><![CDATA[and dependency analysis]]></text><text x="46" y="110" font-family="sans-serif" font-size="15" stroke="none" fill="#000000"><![CDATA[(Frontend)]]></text><text x="50" y="166" font-family="sans-serif" font-size="15" stroke="none" fill="#000000"><![CDATA[Construct Control Flow Graph]]></text><text x="50" y="180" font-family="sans-serif" font-size="15" stroke="none" fill="#000000"><![CDATA[and SSA Form]]></text><text x="52" y="208" font-family="sans-serif" font-size="15" stroke="none" fill="#000000"><![CDATA[(Middleware Pass 1)]]></text><text x="50" y="278" font-family="sans-serif" font-size="15" stroke="none" fill="#000000"><![CDATA[Recreate control flow]]></text><text x="50" y="292" font-family="sans-serif" font-size="15" stroke="none" fill="#000000"><![CDATA[constructs]]></text><text x="52" y="320" font-family="sans-serif" font-size="15" stroke="none" fill="#000000"><![CDATA[(Middleware Pass 2)]]></text><text x="50" y="390" font-family="sans-serif" font-size="15" stroke="none" fill="#000000"><![CDATA[Optimizations and method]]></text><text x="50" y="404" font-family="sans-serif" font-size="15" stroke="none" fill="#000000"><![CDATA[devirtualization]]></text><text x="52" y="432" font-family="sans-serif" font-size="15" stroke="none" fill="#000000"><![CDATA[(Middleware Pass 3)]]></text><text x="63" y="502" font-family="sans-serif" font-size="15" stroke="none" fill="#000000"><![CDATA[Generate JavaScript]]></text><text x="43" y="530" font-family="sans-serif" font-size="15" stroke="none" fill="#000000"><![CDATA[(Backend)]]></text></g></svg>