<?xml version="1.0" encoding="UTF-8"?><svg xmlns="http://www.w3.org/2000/svg" width="430" height="182" version="1.0" shape-rendering="geometricPrecision"><defs><filter id="shadowBlur" x="0" y="0" width="200%" height="200%"><feOffset in="SourceGraphic" dx="3.0003002" dy="3.0003002" result="offOut"></feOffset><feGaussianBlur in="offOut" stdDeviation="3"></feGaussianBlur></filter></defs><g stroke-width="1" stroke-linecap="square" stroke-linejoin="round"><rect x="0" y="0" width="430" height="182" style="fill: #ffffff"></rect><path stroke="#969696" fill="#969696" filter="url(#shadowBlur)" d="M65.0 35.0 L155.0 35.0 L155.0 105.0 Q125.0 97.0 110.0 105.0 Q95.0 113.0 65.0 105.0 z"></path><path stroke="#969696" fill="#969696" filter="url(#shadowBlur)" d="M325.0 35.0 L405.0 35.0 L405.0 105.0 L325.0 105.0 z"></path><path stroke="#969696" fill="#969696" filter="url(#shadowBlur)" d="M195.0 65.0 L275.0 65.0 L275.0 105.0 L195.0 105.0 z"></path><path stroke="#969696" fill="#969696" filter="url(#shadowBlur)" d="M195.0 35.0 L275.0 35.0 L275.0 61.0 L195.0 61.0 z"></path><path stroke="#000000" stroke-width="1.0" stroke-dasharray="5.0,5.0" stroke-miterlimit="0" stroke-linecap="butt" stroke-linejoin="round" fill="none" d="M105.0 105.0 L105.0 147.0 L365.0 147.0 L365.0 119.0 "></path><path stroke="#000000" stroke-width="1.0" stroke-linecap="round" stroke-linejoin="round" fill="white" d="M65.0 35.0 L155.0 35.0 L155.0 105.0 Q125.0 97.0 110.0 105.0 Q95.0 113.0 65.0 105.0 z"></path><path stroke="#000000" stroke-width="1.0" stroke-linecap="round" stroke-linejoin="round" fill="white" d="M325.0 35.0 L405.0 35.0 L405.0 105.0 L325.0 105.0 z"></path><path stroke="#000000" stroke-width="1.0" stroke-linecap="round" stroke-linejoin="round" fill="white" d="M195.0 65.0 L275.0 65.0 L275.0 105.0 L195.0 105.0 z"></path><path stroke="#000000" stroke-width="1.0" stroke-linecap="round" stroke-linejoin="round" fill="white" d="M195.0 35.0 L275.0 35.0 L275.0 61.0 L195.0 61.0 z"></path><path stroke="none" stroke-width="1.0" stroke-linecap="round" stroke-linejoin="round" fill="#000000" d="M300.0 42.0 L310.0 49.0 L300.0 56.0 z"></path><path stroke="none" stroke-width="1.0" stroke-linecap="round" stroke-linejoin="round" fill="#000000" d="M365.0 112.0 L360.0 126.0 L370.0 126.0 z"></path><path stroke="#000000" stroke-width="1.0" stroke-linecap="round" stroke-linejoin="round" fill="none" d="M175.0 49.0 L195.0 49.0 "></path><path stroke="#000000" stroke-width="1.0" stroke-linecap="round" stroke-linejoin="round" fill="none" d="M275.0 49.0 L305.0 49.0 "></path><text x="215" y="54" font-family="sans-serif" font-size="15" stroke="none" fill="#000000"><![CDATA[ditaa]]></text><text x="91" y="68" font-family="sans-serif" font-size="15" stroke="none" fill="#000000"><![CDATA[Text]]></text><text x="70" y="82" font-family="sans-serif" font-size="14" stroke="none" fill="#000000"><![CDATA[Document]]></text><text x="332" y="68" font-family="sans-serif" font-size="15" stroke="none" fill="#000000"><![CDATA[diagram]]></text><text x="204" y="82" font-family="sans-serif" font-size="15" stroke="none" fill="#000000"><![CDATA[!magic!]]></text><text x="188" y="138" font-family="sans-serif" font-size="15" stroke="none" fill="#000000"><![CDATA[Lots of work]]></text></g></svg>