<?xml version="1.0" encoding="UTF-8"?><svg xmlns="http://www.w3.org/2000/svg" width="290" height="448" version="1.0" shape-rendering="geometricPrecision"><defs><style type="text/css">@font-face {
  font-family: sans-serif;
}</style><filter id="shadowBlur" x="0" y="0" width="200%" height="200%"><feOffset in="SourceGraphic" dx="3.0003002" dy="3.0003002" result="offOut"></feOffset><feGaussianBlur in="offOut" stdDeviation="3"></feGaussianBlur></filter></defs><g stroke-width="1" stroke-linecap="square" stroke-linejoin="round"><rect x="0" y="0" width="290" height="448" style="fill: #ffffff"></rect><path stroke="#969696" fill="#969696" filter="url(#shadowBlur)" d="M25.0 273.0 L205.0 273.0 L205.0 343.0 L25.0 343.0 z"></path><path stroke="#969696" fill="#969696" filter="url(#shadowBlur)" d="M25.0 119.0 L205.0 119.0 L205.0 161.0 L25.0 161.0 z"></path><path stroke="#969696" fill="#969696" filter="url(#shadowBlur)" d="M25.0 49.0 L205.0 49.0 L205.0 77.0 L25.0 77.0 z"></path><path stroke="#969696" fill="#969696" filter="url(#shadowBlur)" d="M25.0 203.0 L205.0 203.0 L205.0 231.0 L25.0 231.0 z"></path><path stroke="#969696" fill="#969696" filter="url(#shadowBlur)" d="M25.0 385.0 L205.0 385.0 L205.0 413.0 L25.0 413.0 z"></path><path stroke="#000000" stroke-width="1.0" stroke-linecap="round" stroke-linejoin="round" fill="white" d="M25.0 273.0 L205.0 273.0 L205.0 343.0 L25.0 343.0 z"></path><path stroke="#000000" stroke-width="1.0" stroke-linecap="round" stroke-linejoin="round" fill="none" d="M215.0 147.0 L265.0 147.0 L265.0 301.0 L215.0 301.0 "></path><path stroke="#000000" stroke-width="1.0" stroke-linecap="round" stroke-linejoin="round" fill="white" d="M25.0 119.0 L205.0 119.0 L205.0 161.0 L25.0 161.0 z"></path><path stroke="#000000" stroke-width="1.0" stroke-linecap="round" stroke-linejoin="round" fill="white" d="M25.0 49.0 L205.0 49.0 L205.0 77.0 L25.0 77.0 z"></path><path stroke="#000000" stroke-width="1.0" stroke-linecap="round" stroke-linejoin="round" fill="white" d="M25.0 203.0 L205.0 203.0 L205.0 231.0 L25.0 231.0 z"></path><path stroke="#000000" stroke-width="1.0" stroke-linecap="round" stroke-linejoin="round" fill="white" d="M25.0 385.0 L205.0 385.0 L205.0 413.0 L25.0 413.0 z"></path><path stroke="none" stroke-width="1.0" stroke-linecap="round" stroke-linejoin="round" fill="#000000" d="M100.0 98.0 L105.0 112.0 L110.0 98.0 z"></path><path stroke="none" stroke-width="1.0" stroke-linecap="round" stroke-linejoin="round" fill="#000000" d="M220.0 140.0 L210.0 147.0 L220.0 154.0 z"></path><path stroke="none" stroke-width="1.0" stroke-linecap="round" stroke-linejoin="round" fill="#000000" d="M100.0 182.0 L105.0 196.0 L110.0 182.0 z"></path><path stroke="none" stroke-width="1.0" stroke-linecap="round" stroke-linejoin="round" fill="#000000" d="M100.0 252.0 L105.0 266.0 L110.0 252.0 z"></path><path stroke="none" stroke-width="1.0" stroke-linecap="round" stroke-linejoin="round" fill="#000000" d="M100.0 364.0 L105.0 378.0 L110.0 364.0 z"></path><path stroke="#000000" stroke-width="1.0" stroke-linecap="round" stroke-linejoin="round" fill="none" d="M105.0 84.0 L105.0 105.0 "></path><path stroke="#000000" stroke-width="1.0" stroke-linecap="round" stroke-linejoin="round" fill="none" d="M110.0 133.0 L119.0 133.0 "></path><path stroke="#000000" stroke-width="1.0" stroke-linecap="round" stroke-linejoin="round" fill="none" d="M105.0 168.0 L105.0 189.0 "></path><path stroke="#000000" stroke-width="1.0" stroke-linecap="round" stroke-linejoin="round" fill="none" d="M105.0 238.0 L105.0 259.0 "></path><path stroke="#000000" stroke-width="1.0" stroke-linecap="round" stroke-linejoin="round" fill="none" d="M110.0 287.0 L119.0 287.0 "></path><path stroke="#000000" stroke-width="1.0" stroke-linecap="round" stroke-linejoin="round" fill="none" d="M80.0 315.0 L89.0 315.0 "></path><path stroke="#000000" stroke-width="1.0" stroke-linecap="round" stroke-linejoin="round" fill="none" d="M105.0 350.0 L105.0 371.0 "></path><text x="45" y="69" font-family="sans-serif" font-size="16" stroke="none" fill="#000000"><![CDATA[A) Code]]></text><text x="40" y="139" font-family="sans-serif" font-size="16" stroke="none" fill="#000000"><![CDATA[B) Loop Header]]></text><text x="40" y="153" font-family="sans-serif" font-size="16" stroke="none" fill="#000000"><![CDATA[loopCounter]]></text><text x="184" y="153" font-family="sans-serif" font-size="16" stroke="none" fill="#000000"><![CDATA[0 ]]></text><text x="48" y="223" font-family="sans-serif" font-size="16" stroke="none" fill="#000000"><![CDATA[C) Loop Body]]></text><text x="40" y="293" font-family="sans-serif" font-size="16" stroke="none" fill="#000000"><![CDATA[D) Loop Footer]]></text><text x="40" y="307" font-family="sans-serif" font-size="16" stroke="none" fill="#000000"><![CDATA[loopCounter]]></text><text x="40" y="321" font-family="sans-serif" font-size="16" stroke="none" fill="#000000"><![CDATA[Loop Back or]]></text><text x="40" y="335" font-family="sans-serif" font-size="16" stroke="none" fill="#000000"><![CDATA[continue]]></text><text x="45" y="405" font-family="sans-serif" font-size="16" stroke="none" fill="#000000"><![CDATA[E) Code]]></text></g></svg>