<?xml version="1.0" encoding="UTF-8"?><svg xmlns="http://www.w3.org/2000/svg" width="620" height="112" version="1.0" shape-rendering="geometricPrecision"><defs><filter id="shadowBlur" x="0" y="0" width="200%" height="200%"><feOffset in="SourceGraphic" dx="3.0003002" dy="3.0003002" result="offOut"></feOffset><feGaussianBlur in="offOut" stdDeviation="3"></feGaussianBlur></filter></defs><g stroke-width="1" stroke-linecap="square" stroke-linejoin="round"><rect x="0" y="0" width="620" height="112" style="fill: #ffffff"></rect><path stroke="#969696" fill="#969696" filter="url(#shadowBlur)" d="M367.0 49.0 L595.0 49.0 L595.0 77.0 L367.0 77.0 z"></path><path stroke="#969696" fill="#969696" filter="url(#shadowBlur)" d="M147.0 49.0 L313.0 49.0 L313.0 77.0 L147.0 77.0 z"></path><path stroke="#969696" fill="#969696" filter="url(#shadowBlur)" d="M35.0 49.0 L143.0 49.0 L143.0 77.0 L35.0 77.0 z"></path><path stroke="#969696" fill="#969696" filter="url(#shadowBlur)" d="M317.0 49.0 L363.0 49.0 L363.0 77.0 L317.0 77.0 z"></path><path stroke="#000000" stroke-width="1.0" stroke-linecap="round" stroke-linejoin="round" fill="white" d="M367.0 49.0 L595.0 49.0 L595.0 77.0 L367.0 77.0 z"></path><path stroke="#000000" stroke-width="1.0" stroke-linecap="round" stroke-linejoin="round" fill="white" d="M147.0 49.0 L313.0 49.0 L313.0 77.0 L147.0 77.0 z"></path><path stroke="#000000" stroke-width="1.0" stroke-linecap="round" stroke-linejoin="round" fill="white" d="M35.0 49.0 L143.0 49.0 L143.0 77.0 L35.0 77.0 z"></path><path stroke="#000000" stroke-width="1.0" stroke-linecap="round" stroke-linejoin="round" fill="white" d="M317.0 49.0 L363.0 49.0 L363.0 77.0 L317.0 77.0 z"></path><path stroke="none" stroke-width="1.0" stroke-linecap="round" stroke-linejoin="round" fill="#000000" d="M290.0 56.0 L300.0 63.0 L290.0 70.0 z"></path><path stroke="none" stroke-width="1.0" stroke-linecap="round" stroke-linejoin="round" fill="#000000" d="M390.0 56.0 L380.0 63.0 L390.0 70.0 z"></path><path stroke="#000000" stroke-width="1.0" stroke-linecap="round" stroke-linejoin="round" fill="none" d="M280.0 63.0 L295.0 63.0 "></path><path stroke="#000000" stroke-width="1.0" stroke-linecap="round" stroke-linejoin="round" fill="none" d="M385.0 63.0 L399.0 63.0 "></path><text x="36" y="40" font-family="sans-serif" font-size="15" stroke="none" fill="#000000"><![CDATA[Offset 0]]></text><text x="500" y="40" font-family="sans-serif" font-size="14" stroke="none" fill="#000000"><![CDATA[Max memory]]></text><text x="52" y="68" font-family="sans-serif" font-size="15" stroke="none" fill="#000000"><![CDATA[Reserved]]></text><text x="164" y="68" font-family="sans-serif" font-size="15" stroke="none" fill="#000000"><![CDATA[Heap, grows]]></text><text x="322" y="68" font-family="sans-serif" font-size="15" stroke="none" fill="#000000"><![CDATA[Free]]></text><text x="424" y="68" font-family="sans-serif" font-size="15" stroke="none" fill="#000000"><![CDATA[Stack, grows this]]></text></g></svg>