<?xml version="1.0" encoding="UTF-8" standalone="no"?><svg xmlns="http://www.w3.org/2000/svg" xmlns:xlink="http://www.w3.org/1999/xlink" contentStyleType="text/css" height="210px" preserveAspectRatio="none" style="width:261px;height:210px;background:#FFFFFF;" version="1.1" viewBox="0 0 261 210" width="261px" zoomAndPan="magnify"><defs/><g><path d="M26,36.7999 L26.2802,36.7999 L25.4476,46.6856 L26.2577,56.5714 L26.5329,66.4571 L25.0488,76.3428 L25.8964,86.2285 L25.4313,96.1142 L25.4887,106 L25.9091,115.8857 L25.0782,125.7714 L26.7382,135.6571 L25.1596,145.5428 L25.7363,155.4285 L26.5759,165.3143 L26,175.2 " fill="none" style="stroke:#181818;stroke-width:0.5;stroke-dasharray:5.0,5.0;"/><path d="M236.5,36.7999 L236.7802,36.7999 L235.9476,46.6856 L236.7577,56.5714 L237.0329,66.4571 L235.5488,76.3428 L236.3964,86.2285 L235.9313,96.1142 L235.9887,106 L236.4091,115.8857 L235.5782,125.7714 L237.2382,135.6571 L235.6596,145.5428 L236.2363,155.4285 L237.0759,165.3143 L236.5,175.2 " fill="none" style="stroke:#181818;stroke-width:0.5;stroke-dasharray:5.0,5.0;"/><polygon fill="#E3E3E3" points="7.5,5,7.5,5.0701,15.1,4.8619,22.7,5.0644,30.3,5.1332,37.9,4.7622,45.5,5,45.4901,4.9761,45.7991,5.0151,46.1582,5.1748,46.552,5.4184,46.826,5.3729,47.2678,5.7322,47.4383,5.8029,47.2201,6.0054,47.4998,6.4141,47.8401,6.848,47.8271,7.1355,48,7.5,48.0227,7.5,47.9894,12.66,48.0595,17.82,48.0797,22.98,48.1952,28.1399,48,33.2999,48.2067,33.3855,48.0627,33.7401,47.7855,34.0395,47.7034,34.4197,47.6305,34.8037,47.2678,35.0677,47.1758,34.8456,47.0008,35.4231,46.5228,35.2693,46.2752,35.6714,45.7904,35.501,45.5,35.7999,45.5,35.7771,37.9,36.0471,30.3,35.7837,22.7,35.835,15.1,35.9128,7.5,35.7999,7.5531,35.9281,7.1459,35.6523,6.8295,35.5955,6.3663,35.1843,6.1221,35.3017,5.7322,35.0677,5.9011,35.1376,5.7227,34.7708,5.6281,34.4388,5.1441,33.9454,4.9456,33.5703,5,33.2999,4.7929,33.2999,4.9804,28.1399,4.9345,22.98,5.2271,17.82,4.9418,12.66,5,7.5,4.8944,7.4562,5.2167,7.1756,5.0875,6.7078,5.2795,6.3731,5.7856,6.1686,5.7322,5.7322,5.7878,5.8664,6.1795,5.812,6.3983,5.3402,6.8336,5.3912,7.2218,5.3283,7.5,5" style="stroke:#181818;stroke-width:0.5;"/><text fill="#000000" font-family="sans-serif" font-size="14" lengthAdjust="spacing" textLength="29" x="12" y="25.9999">Alice</text><polygon fill="#E3E3E3" points="7.5,174.2,7.5,174.27,15.1,174.0619,22.7,174.2644,30.3,174.3332,37.9,173.9622,45.5,174.2,45.4901,174.176,45.7991,174.2151,46.1582,174.3748,46.552,174.6183,46.826,174.5729,47.2678,174.9322,47.4383,175.0028,47.2201,175.2054,47.4998,175.6141,47.8401,176.048,47.8271,176.3355,48,176.7,48.0227,176.7,47.9894,181.86,48.0595,187.02,48.0797,192.1799,48.1952,197.3399,48,202.4999,48.2067,202.5855,48.0627,202.9401,47.7855,203.2395,47.7034,203.6197,47.6305,204.0037,47.2678,204.2677,47.1758,204.0456,47.0008,204.6231,46.5228,204.4693,46.2752,204.8714,45.7904,204.701,45.5,204.9999,45.5,204.9771,37.9,205.2471,30.3,204.9837,22.7,205.035,15.1,205.1128,7.5,204.9999,7.5531,205.1281,7.1459,204.8523,6.8295,204.7955,6.3663,204.3843,6.1221,204.5017,5.7322,204.2677,5.9011,204.3376,5.7227,203.9708,5.6281,203.6388,5.1441,203.1454,4.9456,202.7703,5,202.4999,4.7929,202.4999,4.9804,197.3399,4.9345,192.1799,5.2271,187.02,4.9418,181.86,5,176.7,4.8944,176.6562,5.2167,176.3755,5.0875,175.9078,5.2795,175.5731,5.7856,175.3685,5.7322,174.9322,5.7878,175.0664,6.1795,175.012,6.3983,174.5402,6.8336,174.5912,7.2218,174.5283,7.5,174.2" style="stroke:#181818;stroke-width:0.5;"/><text fill="#000000" font-family="sans-serif" font-size="14" lengthAdjust="spacing" textLength="29" x="12" y="195.1999">Alice</text><polygon fill="#E3E3E3" points="220,5,220,5.0701,226.6,4.8619,233.2,5.0644,239.8,5.1332,246.4,4.7622,253,5,252.9901,4.9761,253.2991,5.0151,253.6582,5.1748,254.052,5.4184,254.326,5.3729,254.7678,5.7322,254.9383,5.8029,254.7201,6.0054,254.9998,6.4141,255.3401,6.848,255.3271,7.1355,255.5,7.5,255.5227,7.5,255.4894,12.66,255.5595,17.82,255.5797,22.98,255.6952,28.1399,255.5,33.2999,255.7067,33.3855,255.5627,33.7401,255.2855,34.0395,255.2034,34.4197,255.1305,34.8037,254.7678,35.0677,254.6758,34.8456,254.5008,35.4231,254.0228,35.2693,253.7752,35.6714,253.2904,35.501,253,35.7999,253,35.7771,246.4,36.0471,239.8,35.7837,233.2,35.835,226.6,35.9128,220,35.7999,220.0531,35.9281,219.6459,35.6523,219.3295,35.5955,218.8663,35.1843,218.6221,35.3017,218.2322,35.0677,218.4011,35.1376,218.2227,34.7708,218.1281,34.4388,217.6441,33.9454,217.4456,33.5703,217.5,33.2999,217.2929,33.2999,217.4804,28.1399,217.4345,22.98,217.7271,17.82,217.4418,12.66,217.5,7.5,217.3944,7.4562,217.7167,7.1756,217.5875,6.7078,217.7795,6.3731,218.2856,6.1686,218.2322,5.7322,218.2878,5.8664,218.6795,5.812,218.8983,5.3402,219.3336,5.3912,219.7218,5.3283,220,5" style="stroke:#181818;stroke-width:0.5;"/><text fill="#000000" font-family="sans-serif" font-size="14" lengthAdjust="spacing" textLength="24" x="224.5" y="25.9999">Bob</text><polygon fill="#E3E3E3" points="220,174.2,220,174.27,226.6,174.0619,233.2,174.2644,239.8,174.3332,246.4,173.9622,253,174.2,252.9901,174.176,253.2991,174.2151,253.6582,174.3748,254.052,174.6183,254.326,174.5729,254.7678,174.9322,254.9383,175.0028,254.7201,175.2054,254.9998,175.6141,255.3401,176.048,255.3271,176.3355,255.5,176.7,255.5227,176.7,255.4894,181.86,255.5595,187.02,255.5797,192.1799,255.6952,197.3399,255.5,202.4999,255.7067,202.5855,255.5627,202.9401,255.2855,203.2395,255.2034,203.6197,255.1305,204.0037,254.7678,204.2677,254.6758,204.0456,254.5008,204.6231,254.0228,204.4693,253.7752,204.8714,253.2904,204.701,253,204.9999,253,204.9771,246.4,205.2471,239.8,204.9837,233.2,205.035,226.6,205.1128,220,204.9999,220.0531,205.1281,219.6459,204.8523,219.3295,204.7955,218.8663,204.3843,218.6221,204.5017,218.2322,204.2677,218.4011,204.3376,218.2227,203.9708,218.1281,203.6388,217.6441,203.1454,217.4456,202.7703,217.5,202.4999,217.2929,202.4999,217.4804,197.3399,217.4345,192.1799,217.7271,187.02,217.4418,181.86,217.5,176.7,217.3944,176.6562,217.7167,176.3755,217.5875,175.9078,217.7795,175.5731,218.2856,175.3685,218.2322,174.9322,218.2878,175.0664,218.6795,175.012,218.8983,174.5402,219.3336,174.5912,219.7218,174.5283,220,174.2" style="stroke:#181818;stroke-width:0.5;"/><text fill="#000000" font-family="sans-serif" font-size="14" lengthAdjust="spacing" textLength="24" x="224.5" y="195.1999">Bob</text><polygon fill="#181818" points="224.5,64.3999,224.526,64.465,226.4487,65.0717,228.5239,66.0598,230.5495,66.9236,232.4117,67.3792,234.5,68.3999,234.4904,68.3759,232.4472,69.0679,230.4525,69.8813,228.4916,70.7788,226.4144,71.386,224.5,72.3999,224.6305,72.5304,225.1514,71.4514,226.0534,70.7533,227.0018,70.1018,227.6798,69.1797,228.5,68.3999,228.5161,68.416,227.6925,67.5924,226.9421,66.842,226.1564,66.0563,225.438,65.338,224.5,64.3999" style="stroke:#181818;stroke-width:1.0;"/><path d="M26.5,68.3999 L26.5,68.6802 L36.7,67.8475 L46.9,68.6577 L57.1,68.9328 L67.3,67.4487 L77.5,68.2963 L87.7,67.8313 L97.9,67.8886 L108.1,68.3091 L118.3,67.4781 L128.5,69.1381 L138.7,67.5596 L148.9,68.1363 L159.1,68.9759 L169.3,68.2856 L179.5,68.4909 L189.7,68.3573 L199.9,68.638 L210.1,68.7188 L220.3,69.1809 L230.5,68.3999 " fill="none" style="stroke:#181818;stroke-width:1.0;"/><text fill="#000000" font-family="sans-serif" font-size="13" lengthAdjust="spacing" textLength="133" x="33.5" y="63.7999">Authentication Request</text><polygon fill="#181818" points="37.5,94,37.526,94.065,35.4487,94.6717,33.5239,95.6598,31.5495,96.5237,29.4117,96.9792,27.5,98,27.4904,97.9759,29.4472,98.668,31.4525,99.4813,33.4916,100.3789,35.4144,100.986,37.5,102,37.6305,102.1304,36.5514,101.0514,35.8534,100.3533,35.2018,99.7018,34.2798,98.7797,33.5,98,33.5161,98.016,34.2925,97.1924,35.1421,96.442,35.9564,95.6563,36.838,94.938,37.5,94" style="stroke:#181818;stroke-width:1.0;"/><path d="M31.5,98 L31.5,98.2802 L41.7,97.4475 L51.9,98.2577 L62.1,98.5329 L72.3,97.0488 L82.5,97.8963 L92.7,97.4313 L102.9,97.4886 L113.1,97.9091 L123.3,97.0781 L133.5,98.7381 L143.7,97.1596 L153.9,97.7363 L164.1,98.5759 L174.3,97.8856 L184.5,98.0909 L194.7,97.9574 L204.9,98.238 L215.1,98.3188 L225.3,98.7809 L235.5,98 " fill="none" style="stroke:#181818;stroke-width:1.0;stroke-dasharray:2.0,2.0;"/><text fill="#000000" font-family="sans-serif" font-size="13" lengthAdjust="spacing" textLength="142" x="43.5" y="93.4">Authentication Response</text><polygon fill="#181818" points="224.5,123.6,224.526,123.665,226.4487,124.2717,228.5239,125.2598,230.5495,126.1237,232.4117,126.5792,234.5,127.6,234.4904,127.5759,232.4472,128.268,230.4525,129.0813,228.4916,129.9789,226.4144,130.586,224.5,131.6,224.6305,131.7305,225.1514,130.6514,226.0534,129.9534,227.0018,129.3018,227.6798,128.3798,228.5,127.6,228.5161,127.6161,227.6925,126.7924,226.9421,126.042,226.1564,125.2563,225.438,124.538,224.5,123.6" style="stroke:#181818;stroke-width:1.0;"/><path d="M26.5,127.6 L26.5,127.8802 L36.7,127.0475 L46.9,127.8577 L57.1,128.1329 L67.3,126.6488 L77.5,127.4964 L87.7,127.0313 L97.9,127.0886 L108.1,127.5091 L118.3,126.6781 L128.5,128.3382 L138.7,126.7596 L148.9,127.3363 L159.1,128.1759 L169.3,127.4856 L179.5,127.691 L189.7,127.5574 L199.9,127.838 L210.1,127.9188 L220.3,128.3809 L230.5,127.6 " fill="none" style="stroke:#181818;stroke-width:1.0;"/><text fill="#000000" font-family="sans-serif" font-size="13" lengthAdjust="spacing" textLength="179" x="33.5" y="123">Another authentication Request</text><polygon fill="#181818" points="37.5,153.2,37.526,153.265,35.4487,153.8718,33.5239,154.8598,31.5495,155.7237,29.4117,156.1792,27.5,157.2,27.4904,157.1759,29.4472,157.868,31.4525,158.6813,33.4916,159.5789,35.4144,160.186,37.5,161.2,37.6305,161.3305,36.5514,160.2514,35.8534,159.5534,35.2018,158.9018,34.2798,157.9798,33.5,157.2,33.5161,157.2161,34.2925,156.3925,35.1421,155.6421,35.9564,154.8563,36.838,154.138,37.5,153.2" style="stroke:#181818;stroke-width:1.0;"/><path d="M31.5,157.2 L31.5,157.4802 L41.7,156.6476 L51.9,157.4577 L62.1,157.7329 L72.3,156.2488 L82.5,157.0964 L92.7,156.6313 L102.9,156.6886 L113.1,157.1091 L123.3,156.2782 L133.5,157.9382 L143.7,156.3596 L153.9,156.9363 L164.1,157.7759 L174.3,157.0856 L184.5,157.291 L194.7,157.1574 L204.9,157.438 L215.1,157.5188 L225.3,157.9809 L235.5,157.2 " fill="none" style="stroke:#181818;stroke-width:1.0;stroke-dasharray:2.0,2.0;"/><text fill="#000000" font-family="sans-serif" font-size="13" lengthAdjust="spacing" textLength="186" x="43.5" y="152.6">another authentication Response</text><!--MD5=[27c39210288f4842d671286a8f5d3254]
@startuml
skinparam handwritten true
skinparam monochrome true
Alice -> Bob: Authentication Request
Bob - -> Alice: Authentication Response

Alice -> Bob: Another authentication Request
Alice <- - Bob: another authentication Response
@enduml

PlantUML version 1.2022.5(Sat Apr 30 10:55:52 GMT 2022)
(GPL source distribution)
Java Runtime: OpenJDK Runtime Environment
JVM: OpenJDK 64-Bit Server VM
Default Encoding: UTF-8
Language: en
Country: US
--></g></svg>