<?xml version="1.0" encoding="UTF-8"?><svg xmlns="http://www.w3.org/2000/svg" width="800" height="476" version="1.0" shape-rendering="geometricPrecision"><defs><style type="text/css">@font-face {
  font-family: sans-serif;
}</style><filter id="shadowBlur" x="0" y="0" width="200%" height="200%"><feOffset in="SourceGraphic" dx="3.0003002" dy="3.0003002" result="offOut"></feOffset><feGaussianBlur in="offOut" stdDeviation="3"></feGaussianBlur></filter></defs><g stroke-width="1" stroke-linecap="square" stroke-linejoin="round"><rect x="0" y="0" width="800" height="476" style="fill: #ffffff"></rect><path stroke="#000000" stroke-width="1.0" stroke-linecap="round" stroke-linejoin="round" fill="none" d="M65.0 371.0 L65.0 441.0 L775.0 441.0 L775.0 35.0 L335.0 35.0 "></path><path stroke="#000000" stroke-width="1.0" stroke-linecap="round" stroke-linejoin="round" fill="none" d="M355.0 119.0 L355.0 147.0 L575.0 147.0 L575.0 119.0 L445.0 119.0 "></path><path stroke="#000000" stroke-width="1.0" stroke-linecap="round" stroke-linejoin="round" fill="none" d="M305.0 119.0 L305.0 147.0 L85.0 147.0 L85.0 119.0 L95.0 119.0 "></path><path stroke="#000000" stroke-width="1.0" stroke-linecap="round" stroke-linejoin="round" fill="none" d="M95.0 189.0 L85.0 189.0 L85.0 217.0 L245.0 217.0 L245.0 189.0 L145.0 189.0 "></path><path stroke="#000000" stroke-width="1.0" stroke-linecap="round" stroke-linejoin="round" fill="none" d="M535.0 189.0 L535.0 217.0 L695.0 217.0 L695.0 189.0 L595.0 189.0 "></path><path stroke="#000000" stroke-width="1.0" stroke-linecap="round" stroke-linejoin="round" fill="none" d="M325.0 189.0 L315.0 189.0 L315.0 217.0 L475.0 217.0 L475.0 189.0 "></path><path stroke="#000000" stroke-width="1.0" stroke-linecap="round" stroke-linejoin="round" fill="none" d="M95.0 259.0 L85.0 259.0 L85.0 287.0 L245.0 287.0 L245.0 259.0 L145.0 259.0 "></path><path stroke="#000000" stroke-width="1.0" stroke-linecap="round" stroke-linejoin="round" fill="none" d="M95.0 329.0 L85.0 329.0 L85.0 357.0 L245.0 357.0 L245.0 329.0 L145.0 329.0 "></path><path stroke="#000000" stroke-width="1.0" stroke-linecap="round" stroke-linejoin="round" fill="none" d="M95.0 399.0 L85.0 399.0 L85.0 427.0 L245.0 427.0 L245.0 399.0 L145.0 399.0 "></path><path stroke="#000000" stroke-width="1.0" stroke-linecap="round" stroke-linejoin="round" fill="none" d="M605.0 63.0 L595.0 63.0 L595.0 91.0 L685.0 91.0 L685.0 63.0 L655.0 63.0 "></path><path stroke="#000000" stroke-width="1.0" stroke-linecap="round" stroke-linejoin="round" fill="none" d="M175.0 91.0 L245.0 91.0 L245.0 63.0 L145.0 63.0 "></path><path stroke="#000000" stroke-width="1.0" stroke-linecap="round" stroke-linejoin="round" fill="none" d="M175.0 119.0 L305.0 119.0 L305.0 147.0 "></path><path stroke="#000000" stroke-width="1.0" stroke-linecap="round" stroke-linejoin="round" fill="none" d="M95.0 63.0 L85.0 63.0 L85.0 91.0 L175.0 91.0 "></path><path stroke="#000000" stroke-width="1.0" stroke-linecap="round" stroke-linejoin="round" fill="none" d="M475.0 217.0 L475.0 189.0 L375.0 189.0 "></path><path stroke="#000000" stroke-width="1.0" stroke-linecap="round" stroke-linejoin="round" fill="none" d="M85.0 35.0 L65.0 35.0 L65.0 161.0 "></path><path stroke="#000000" stroke-width="1.0" stroke-linecap="round" stroke-linejoin="round" fill="none" d="M445.0 91.0 L485.0 91.0 L485.0 63.0 L475.0 63.0 "></path><path stroke="#000000" stroke-width="1.0" stroke-linecap="round" stroke-linejoin="round" fill="none" d="M445.0 91.0 L415.0 91.0 L415.0 63.0 L425.0 63.0 "></path><path stroke="#000000" stroke-width="1.0" stroke-linecap="round" stroke-linejoin="round" fill="none" d="M355.0 147.0 L355.0 119.0 L365.0 119.0 "></path><path stroke="#000000" stroke-width="1.0" stroke-linecap="round" stroke-linejoin="round" fill="none" d="M535.0 217.0 L535.0 189.0 L545.0 189.0 "></path><path stroke="#000000" stroke-width="1.0" stroke-linecap="round" stroke-linejoin="round" fill="none" d="M65.0 161.0 L85.0 161.0 "></path><path stroke="#000000" stroke-width="1.0" stroke-linecap="round" stroke-linejoin="round" fill="none" d="M65.0 231.0 L85.0 231.0 "></path><path stroke="#000000" stroke-width="1.0" stroke-linecap="round" stroke-linejoin="round" fill="none" d="M65.0 301.0 L85.0 301.0 "></path><path stroke="#000000" stroke-width="1.0" stroke-linecap="round" stroke-linejoin="round" fill="none" d="M65.0 371.0 L85.0 371.0 "></path><path stroke="#000000" stroke-width="1.0" stroke-linecap="round" stroke-linejoin="round" fill="none" d="M65.0 301.0 L65.0 371.0 "></path><path stroke="#000000" stroke-width="1.0" stroke-linecap="round" stroke-linejoin="round" fill="none" d="M65.0 231.0 L65.0 301.0 "></path><path stroke="#000000" stroke-width="1.0" stroke-linecap="round" stroke-linejoin="round" fill="none" d="M65.0 161.0 L65.0 231.0 "></path><path stroke="#000000" stroke-width="1.0" stroke-linecap="round" stroke-linejoin="round" fill="none" d="M175.0 119.0 L145.0 119.0 "></path><path stroke="#000000" stroke-width="1.0" stroke-linecap="round" stroke-linejoin="round" fill="none" d="M445.0 119.0 L445.0 91.0 "></path><path stroke="#000000" stroke-width="1.0" stroke-linecap="round" stroke-linejoin="round" fill="none" d="M445.0 119.0 L415.0 119.0 "></path><path stroke="#000000" stroke-width="1.0" stroke-linecap="round" stroke-linejoin="round" fill="none" d="M305.0 133.0 L355.0 133.0 "></path><path stroke="#000000" stroke-width="1.0" stroke-linecap="round" stroke-linejoin="round" fill="none" d="M175.0 91.0 L175.0 119.0 "></path><path stroke="#000000" stroke-width="1.0" stroke-linecap="round" stroke-linejoin="round" fill="none" d="M275.0 161.0 L765.0 161.0 "></path><path stroke="#000000" stroke-width="1.0" stroke-linecap="round" stroke-linejoin="round" fill="none" d="M475.0 203.0 L535.0 203.0 "></path><path stroke="#000000" stroke-width="1.0" stroke-linecap="round" stroke-linejoin="round" fill="none" d="M255.0 231.0 L765.0 231.0 "></path><path stroke="#000000" stroke-width="1.0" stroke-linecap="round" stroke-linejoin="round" fill="none" d="M355.0 301.0 L765.0 301.0 "></path><path stroke="#000000" stroke-width="1.0" stroke-linecap="round" stroke-linejoin="round" fill="none" d="M355.0 371.0 L765.0 371.0 "></path><path stroke="#000000" stroke-width="1.0" stroke-linecap="round" stroke-linejoin="round" fill="#ffffff" d="M448.5 91.0 L448.38074 91.90587 L448.0311 92.75 L447.47488 93.47488 L446.75 94.03109 L445.90585 94.38074 L445.0 94.5 L444.09415 94.38074 L443.25 94.03109 L442.52512 93.47488 L441.9689 92.75 L441.61926 91.90587 L441.5 91.0 L441.61926 90.09413 L441.9689 89.25 L442.52512 88.52512 L443.25 87.96891 L444.09415 87.61926 L445.0 87.5 L445.90585 87.61926 L446.75 87.96891 L447.47488 88.52512 L448.0311 89.25 L448.38074 90.09413 L448.5 91.0 z"></path><text x="118" y="41" font-family="sans-serif" font-size="16" stroke="none" fill="#000000"><![CDATA[Hardware interface layer]]></text><text x="101" y="69" font-family="sans-serif" font-size="16" stroke="none" fill="#000000"><![CDATA[node]]></text><text x="103" y="83" font-family="sans-serif" font-size="16" stroke="none" fill="#000000"><![CDATA[roombainterface]]></text><text x="431" y="69" font-family="sans-serif" font-size="16" stroke="none" fill="#000000"><![CDATA[node]]></text><text x="421" y="83" font-family="sans-serif" font-size="16" stroke="none" fill="#000000"><![CDATA[imu]]></text><text x="611" y="69" font-family="sans-serif" font-size="16" stroke="none" fill="#000000"><![CDATA[node]]></text><text x="609" y="83" font-family="sans-serif" font-size="16" stroke="none" fill="#000000"><![CDATA[ydlidar]]></text><text x="101" y="125" font-family="sans-serif" font-size="16" stroke="none" fill="#000000"><![CDATA[node]]></text><text x="114" y="139" font-family="sans-serif" font-size="16" stroke="none" fill="#000000"><![CDATA[differentialodometry]]></text><text x="371" y="125" font-family="sans-serif" font-size="16" stroke="none" fill="#000000"><![CDATA[node]]></text><text x="382" y="139" font-family="sans-serif" font-size="16" stroke="none" fill="#000000"><![CDATA[ekf_localization_node]]></text><text x="114" y="167" font-family="sans-serif" font-size="16" stroke="none" fill="#000000"><![CDATA[Localization layer]]></text><text x="101" y="195" font-family="sans-serif" font-size="16" stroke="none" fill="#000000"><![CDATA[node]]></text><text x="92" y="209" font-family="sans-serif" font-size="16" stroke="none" fill="#000000"><![CDATA[gmapping]]></text><text x="331" y="195" font-family="sans-serif" font-size="16" stroke="none" fill="#000000"><![CDATA[node]]></text><text x="325" y="209" font-family="sans-serif" font-size="16" stroke="none" fill="#000000"><![CDATA[mapserver]]></text><text x="551" y="195" font-family="sans-serif" font-size="16" stroke="none" fill="#000000"><![CDATA[node]]></text><text x="542" y="209" font-family="sans-serif" font-size="16" stroke="none" fill="#000000"><![CDATA[amcl]]></text><text x="109" y="237" font-family="sans-serif" font-size="16" stroke="none" fill="#000000"><![CDATA[Navigation layer]]></text><text x="101" y="265" font-family="sans-serif" font-size="16" stroke="none" fill="#000000"><![CDATA[node]]></text><text x="91" y="279" font-family="sans-serif" font-size="16" stroke="none" fill="#000000"><![CDATA[move_base]]></text><text x="124" y="307" font-family="sans-serif" font-size="16" stroke="none" fill="#000000"><![CDATA[High level functions layer]]></text><text x="101" y="335" font-family="sans-serif" font-size="16" stroke="none" fill="#000000"><![CDATA[node]]></text><text x="101" y="349" font-family="sans-serif" font-size="16" stroke="none" fill="#000000"><![CDATA[highlevel]]></text><text x="120" y="377" font-family="sans-serif" font-size="16" stroke="none" fill="#000000"><![CDATA[Supervisor functions layer]]></text><text x="101" y="405" font-family="sans-serif" font-size="16" stroke="none" fill="#000000"><![CDATA[node]]></text><text x="99" y="419" font-family="sans-serif" font-size="16" stroke="none" fill="#000000"><![CDATA[supervisor]]></text></g></svg>