<?xml version="1.0" encoding="UTF-8"?><svg xmlns="http://www.w3.org/2000/svg" width="780" height="182" version="1.0" shape-rendering="geometricPrecision"><defs><style type="text/css">@font-face {
  font-family: sans-serif;
}</style><filter id="shadowBlur" x="0" y="0" width="200%" height="200%"><feOffset in="SourceGraphic" dx="3.0003002" dy="3.0003002" result="offOut"></feOffset><feGaussianBlur in="offOut" stdDeviation="3"></feGaussianBlur></filter></defs><g stroke-width="1" stroke-linecap="square" stroke-linejoin="round"><rect x="0" y="0" width="780" height="182" style="fill: #ffffff"></rect><path stroke="#969696" fill="#969696" filter="url(#shadowBlur)" d="M215.0 63.0 L425.0 63.0 L425.0 91.0 L215.0 91.0 z"></path><path stroke="#969696" fill="#969696" filter="url(#shadowBlur)" d="M85.0 63.0 L195.0 63.0 L195.0 91.0 L85.0 91.0 z"></path><path stroke="#969696" fill="#969696" filter="url(#shadowBlur)" d="M615.0 63.0 L725.0 63.0 L725.0 91.0 L615.0 91.0 z"></path><path stroke="#969696" fill="#969696" filter="url(#shadowBlur)" d="M515.0 63.0 L595.0 63.0 L595.0 91.0 L515.0 91.0 z"></path><path stroke="#969696" fill="#969696" filter="url(#shadowBlur)" d="M445.0 63.0 L495.0 63.0 L495.0 91.0 L445.0 91.0 z"></path><path stroke="#000000" stroke-width="1.0" stroke-linecap="round" stroke-linejoin="round" fill="none" d="M85.0 35.0 L65.0 35.0 L65.0 147.0 L755.0 147.0 L755.0 35.0 L315.0 35.0 "></path><path stroke="#000000" stroke-width="1.0" stroke-linecap="round" stroke-linejoin="round" fill="white" d="M215.0 63.0 L425.0 63.0 L425.0 91.0 L215.0 91.0 z"></path><path stroke="#000000" stroke-width="1.0" stroke-linecap="round" stroke-linejoin="round" fill="none" d="M285.0 91.0 L285.0 133.0 L525.0 133.0 "></path><path stroke="#000000" stroke-width="1.0" stroke-linecap="round" stroke-linejoin="round" fill="white" d="M85.0 63.0 L195.0 63.0 L195.0 91.0 L85.0 91.0 z"></path><path stroke="#000000" stroke-width="1.0" stroke-linecap="round" stroke-linejoin="round" fill="white" d="M615.0 63.0 L725.0 63.0 L725.0 91.0 L615.0 91.0 z"></path><path stroke="#000000" stroke-width="1.0" stroke-linecap="round" stroke-linejoin="round" fill="none" d="M675.0 91.0 L675.0 133.0 L565.0 133.0 "></path><path stroke="#000000" stroke-width="1.0" stroke-linecap="round" stroke-linejoin="round" fill="white" d="M515.0 63.0 L595.0 63.0 L595.0 91.0 L515.0 91.0 z"></path><path stroke="#000000" stroke-width="1.0" stroke-linecap="round" stroke-linejoin="round" fill="white" d="M445.0 63.0 L495.0 63.0 L495.0 91.0 L445.0 91.0 z"></path><path stroke="#000000" stroke-width="1.0" stroke-linecap="round" stroke-linejoin="round" fill="none" d="M465.0 119.0 L545.0 119.0 L545.0 91.0 "></path><path stroke="#000000" stroke-width="1.0" stroke-linecap="round" stroke-linejoin="round" fill="none" d="M325.0 91.0 L325.0 119.0 L385.0 119.0 "></path><path stroke="#000000" stroke-width="1.0" stroke-linecap="round" stroke-linejoin="round" fill="none" d="M135.0 91.0 L135.0 119.0 L165.0 119.0 "></path><path stroke="#000000" stroke-width="1.0" stroke-linecap="round" stroke-linejoin="round" fill="none" d="M245.0 91.0 L245.0 119.0 L215.0 119.0 "></path><path stroke="#000000" stroke-width="1.0" stroke-linecap="round" stroke-linejoin="round" fill="none" d="M465.0 119.0 L425.0 119.0 "></path><path stroke="#000000" stroke-width="1.0" stroke-linecap="round" stroke-linejoin="round" fill="none" d="M465.0 91.0 L465.0 119.0 "></path><text x="105" y="41" font-family="sans-serif" font-size="16" stroke="none" fill="#000000"><![CDATA[Roomba hardware wiring]]></text><text x="92" y="83" font-family="sans-serif" font-size="16" stroke="none" fill="#000000"><![CDATA[Roomba 581]]></text><text x="237" y="83" font-family="sans-serif" font-size="16" stroke="none" fill="#000000"><![CDATA[Raspberry Pi Zero 2W]]></text><text x="451" y="82" font-family="sans-serif" font-size="14" stroke="none" fill="#000000"><![CDATA[OLED]]></text><text x="522" y="82" font-family="sans-serif" font-size="15" stroke="none" fill="#000000"><![CDATA[MPU6050]]></text><text x="623" y="83" font-family="sans-serif" font-size="16" stroke="none" fill="#000000"><![CDATA[YDLiDAR X4]]></text><text x="171" y="124" font-family="sans-serif" font-size="14" stroke="none" fill="#000000"><![CDATA[UART]]></text><text x="392" y="125" font-family="sans-serif" font-size="16" stroke="none" fill="#000000"><![CDATA[I2C]]></text><text x="530" y="138" font-family="sans-serif" font-size="14" stroke="none" fill="#000000"><![CDATA[USB]]></text></g></svg>