<?xml version="1.0" encoding="UTF-8"?><svg xmlns="http://www.w3.org/2000/svg" width="860" height="252" version="1.0" shape-rendering="geometricPrecision"><defs><style type="text/css">@font-face {
  font-family: sans-serif;
}</style><filter id="shadowBlur" x="0" y="0" width="200%" height="200%"><feOffset in="SourceGraphic" dx="3.0003002" dy="3.0003002" result="offOut"></feOffset><feGaussianBlur in="offOut" stdDeviation="3"></feGaussianBlur></filter></defs><g stroke-width="1" stroke-linecap="square" stroke-linejoin="round"><rect x="0" y="0" width="860" height="252" style="fill: #ffffff"></rect><path stroke="#969696" fill="#969696" filter="url(#shadowBlur)" d="M25.0 35.0 L365.0 35.0 L365.0 217.0 L25.0 217.0 z"></path><path stroke="#969696" fill="#969696" filter="url(#shadowBlur)" d="M495.0 35.0 L835.0 35.0 L835.0 217.0 L495.0 217.0 z"></path><path stroke="#969696" fill="#969696" filter="url(#shadowBlur)" d="M55.0 107.0 L335.0 107.0 L335.0 133.0 L55.0 133.0 z"></path><path stroke="#969696" fill="#969696" filter="url(#shadowBlur)" d="M525.0 107.0 L805.0 107.0 L805.0 133.0 L525.0 133.0 z"></path><path stroke="#969696" fill="#969696" filter="url(#shadowBlur)" d="M55.0 77.0 L283.0 77.0 L283.0 103.0 L55.0 103.0 z"></path><path stroke="#969696" fill="#969696" filter="url(#shadowBlur)" d="M525.0 77.0 L753.0 77.0 L753.0 103.0 L525.0 103.0 z"></path><path stroke="#969696" fill="#969696" filter="url(#shadowBlur)" d="M145.0 161.0 L265.0 161.0 L265.0 203.0 L145.0 203.0 z"></path><path stroke="#969696" fill="#969696" filter="url(#shadowBlur)" d="M615.0 161.0 L735.0 161.0 L735.0 203.0 L615.0 203.0 z"></path><path stroke="#969696" fill="#969696" filter="url(#shadowBlur)" d="M287.0 77.0 L335.0 77.0 L335.0 103.0 L287.0 103.0 z"></path><path stroke="#969696" fill="#969696" filter="url(#shadowBlur)" d="M757.0 77.0 L805.0 77.0 L805.0 103.0 L757.0 103.0 z"></path><path stroke="#000000" stroke-width="1.0" stroke-linecap="round" stroke-linejoin="round" fill="white" d="M25.0 35.0 L365.0 35.0 L365.0 217.0 L25.0 217.0 z"></path><path stroke="#000000" stroke-width="1.0" stroke-linecap="round" stroke-linejoin="round" fill="white" d="M495.0 35.0 L835.0 35.0 L835.0 217.0 L495.0 217.0 z"></path><path stroke="#000000" stroke-width="1.0" stroke-linecap="round" stroke-linejoin="round" fill="white" d="M55.0 107.0 L335.0 107.0 L335.0 133.0 L55.0 133.0 z"></path><path stroke="#000000" stroke-width="1.0" stroke-linecap="round" stroke-linejoin="round" fill="white" d="M525.0 107.0 L805.0 107.0 L805.0 133.0 L525.0 133.0 z"></path><path stroke="#000000" stroke-width="1.0" stroke-linecap="round" stroke-linejoin="round" fill="white" d="M55.0 77.0 L283.0 77.0 L283.0 103.0 L55.0 103.0 z"></path><path stroke="#000000" stroke-width="1.0" stroke-linecap="round" stroke-linejoin="round" fill="white" d="M525.0 77.0 L753.0 77.0 L753.0 103.0 L525.0 103.0 z"></path><path stroke="#000000" stroke-width="1.0" stroke-linecap="round" stroke-linejoin="round" fill="white" d="M145.0 161.0 L265.0 161.0 L265.0 203.0 L145.0 203.0 z"></path><path stroke="#000000" stroke-width="1.0" stroke-linecap="round" stroke-linejoin="round" fill="white" d="M615.0 161.0 L735.0 161.0 L735.0 203.0 L615.0 203.0 z"></path><path stroke="#000000" stroke-width="1.0" stroke-linecap="round" stroke-linejoin="round" fill="white" d="M287.0 77.0 L335.0 77.0 L335.0 103.0 L287.0 103.0 z"></path><path stroke="#000000" stroke-width="1.0" stroke-linecap="round" stroke-linejoin="round" fill="white" d="M757.0 77.0 L805.0 77.0 L805.0 103.0 L757.0 103.0 z"></path><path stroke="none" stroke-width="1.0" stroke-linecap="round" stroke-linejoin="round" fill="#000000" d="M380.0 112.0 L370.0 119.0 L380.0 126.0 z"></path><path stroke="none" stroke-width="1.0" stroke-linecap="round" stroke-linejoin="round" fill="#000000" d="M480.0 112.0 L490.0 119.0 L480.0 126.0 z"></path><path stroke="#000000" stroke-width="1.0" stroke-linecap="round" stroke-linejoin="round" fill="none" d="M110.0 91.0 L119.0 91.0 "></path><path stroke="#000000" stroke-width="1.0" stroke-linecap="round" stroke-linejoin="round" fill="none" d="M580.0 91.0 L589.0 91.0 "></path><path stroke="#000000" stroke-width="1.0" stroke-linecap="round" stroke-linejoin="round" fill="none" d="M375.0 119.0 L389.0 119.0 "></path><path stroke="#000000" stroke-width="1.0" stroke-linecap="round" stroke-linejoin="round" fill="none" d="M470.0 119.0 L485.0 119.0 "></path><path stroke="#000000" stroke-width="1.0" stroke-linecap="round" stroke-linejoin="round" fill="none" d="M205.0 133.0 L205.0 161.0 "></path><path stroke="#000000" stroke-width="1.0" stroke-linecap="round" stroke-linejoin="round" fill="none" d="M675.0 133.0 L675.0 161.0 "></path><text x="60" y="55" font-family="sans-serif" font-size="16" stroke="none" fill="#000000"><![CDATA[SCS for Bounded Context 1]]></text><text x="536" y="55" font-family="sans-serif" font-size="16" stroke="none" fill="#000000"><![CDATA[SCS for Bounded Context 2..n]]></text><text x="87" y="97" font-family="sans-serif" font-size="16" stroke="none" fill="#000000"><![CDATA[User Interface]]></text><text x="302" y="97" font-family="sans-serif" font-size="16" stroke="none" fill="#000000"><![CDATA[API]]></text><text x="557" y="97" font-family="sans-serif" font-size="16" stroke="none" fill="#000000"><![CDATA[User Interface]]></text><text x="772" y="97" font-family="sans-serif" font-size="16" stroke="none" fill="#000000"><![CDATA[API]]></text><text x="82" y="125" font-family="sans-serif" font-size="16" stroke="none" fill="#000000"><![CDATA[Service(s)]]></text><text x="404" y="125" font-family="sans-serif" font-size="16" stroke="none" fill="#000000"><![CDATA[Events]]></text><text x="552" y="125" font-family="sans-serif" font-size="16" stroke="none" fill="#000000"><![CDATA[Service(s)]]></text><text x="164" y="181" font-family="sans-serif" font-size="16" stroke="none" fill="#000000"><![CDATA[Database]]></text><text x="634" y="181" font-family="sans-serif" font-size="16" stroke="none" fill="#000000"><![CDATA[Database]]></text></g></svg>