<?xml version="1.0" encoding="UTF-8"?><svg xmlns="http://www.w3.org/2000/svg" width="840" height="280" version="1.0" shape-rendering="geometricPrecision"><defs><style type="text/css">@font-face {
  font-family: sans-serif;
}</style><filter id="shadowBlur" x="0" y="0" width="200%" height="200%"><feOffset in="SourceGraphic" dx="3.0003002" dy="3.0003002" result="offOut"></feOffset><feGaussianBlur in="offOut" stdDeviation="3"></feGaussianBlur></filter></defs><g stroke-width="1" stroke-linecap="square" stroke-linejoin="round"><rect x="0" y="0" width="840" height="280" style="fill: #ffffff"></rect><path stroke="#969696" fill="#969696" filter="url(#shadowBlur)" d="M25.0 35.0 L815.0 35.0 L815.0 245.0 L25.0 245.0 z"></path><path stroke="#969696" fill="#969696" filter="url(#shadowBlur)" d="M75.0 133.0 L765.0 133.0 L765.0 217.0 L75.0 217.0 z"></path><path stroke="#969696" fill="#969696" filter="url(#shadowBlur)" d="M75.0 77.0 L395.0 77.0 L395.0 105.0 L75.0 105.0 z"></path><path stroke="#969696" fill="#969696" filter="url(#shadowBlur)" d="M445.0 77.0 L765.0 77.0 L765.0 105.0 L445.0 105.0 z"></path><path stroke="#000000" stroke-width="1.0" stroke-linecap="round" stroke-linejoin="round" fill="white" d="M25.0 35.0 L815.0 35.0 L815.0 245.0 L25.0 245.0 z"></path><path stroke="#000000" stroke-width="1.0" stroke-linecap="round" stroke-linejoin="round" fill="white" d="M75.0 133.0 L765.0 133.0 L765.0 217.0 L75.0 217.0 z"></path><path stroke="#000000" stroke-width="1.0" stroke-linecap="round" stroke-linejoin="round" fill="white" d="M75.0 77.0 L395.0 77.0 L395.0 105.0 L75.0 105.0 z"></path><path stroke="#000000" stroke-width="1.0" stroke-linecap="round" stroke-linejoin="round" fill="white" d="M445.0 77.0 L765.0 77.0 L765.0 105.0 L445.0 105.0 z"></path><text x="51" y="55" font-family="sans-serif" font-size="16" stroke="none" fill="#000000"><![CDATA[Portal HTML Page]]></text><text x="105" y="97" font-family="sans-serif" font-size="16" stroke="none" fill="#000000"><![CDATA[Part of SCS #1]]></text><text x="482" y="97" font-family="sans-serif" font-size="16" stroke="none" fill="#000000"><![CDATA[Other Part of SCS #1]]></text><text x="105" y="153" font-family="sans-serif" font-size="16" stroke="none" fill="#000000"><![CDATA[Part of SCS #2]]></text></g></svg>