<svg xmlns="http://www.w3.org/2000/svg" width="800" height="800" overflow="hidden!important"><g id="svga-group-wrapper" transform="scale(4)"><g id="svga-group-subwrapper" transform="matrix(.9 0 0 .9 12 8.758)"><g id="svga-group-hair-back"><path id="SvgjsPath3969" d="M100.5 100.5h-1v-1h1v1z" fill="#2a232b" stroke-width="none"/></g><g id="svga-group-humanbody-single"><path id="SvgjsPath2893" d="M195.417 199.778c-2.196-4.746-8.195-11.779-14.86-13.722-8.239-2.403-26.837-5.308-33.733-6.923-5.528-1.296-16.662-11.294-20.564-14.65-.7-.6-1.273-1.839-1.287-2.76-.139-10.864 4.195-39.724 4.195-39.724H70.833s4.334 28.859 4.193 39.724c-.011.921-.587 2.16-1.285 2.76-3.902 3.356-15.036 13.354-20.564 14.65-6.897 1.615-25.495 4.619-33.733 7.022-6.667 1.942-12.664 8.876-14.86 13.622-3.708 8.008-4.584 22.5-4.584 35h200c0-12.499-.877-26.991-4.583-34.999z" fill="#f0c7b1" stroke-width="none"/><path id="SvgjsPath2894" d="M159.156 184.058c24.342 3.542 34.586 8.708 37.794 50.721H200c0-12.5-.877-26.992-4.583-35-2.196-4.746-8.195-11.779-14.86-13.722-8.239-2.403-26.837-5.308-33.733-6.923-5.528-1.296-18.242-12.069-21.643-16.35 3.36 4.704 12.791 15.605 21.054 18.46 3.953 1.366 7.245 1.988 12.921 2.814zm-105.39-2.814c8.263-2.854 17.693-13.756 21.054-18.46-3.4 4.28-16.114 15.054-21.643 16.35-6.896 1.615-25.494 4.619-33.733 7.022-6.665 1.942-12.664 8.876-14.86 13.622-3.706 8.008-4.583 22.5-4.583 35h3.05c3.188-41.744 13.475-47.183 37.794-50.721 5.675-.825 8.968-1.447 12.921-2.813z" fill="#ffe4d6" stroke-width="none"/><path id="SvgjsPath2895" d="M95.646 197.62s-5.074-1.609-7.083-2.379c-10.449-4.009-44.395-6.607-44.395-6.607s35.754 1.419 43.644 2.779c-.458-4.767-3.017-20.004-3.017-20.004s5.149 16.815 6.409 21.057c.674 2.268 4.442 5.154 4.442 5.154zm10.799-1.342c-.089.073-.191.168-.302.268.113-.085.215-.174.302-.268zm-10.799 1.342s2.893 2.992 4.347 3.03c1.91.051 4.828-2.899 6.151-4.104-1.265.957-4.159 1.391-5.31 1.436-1.33.051-5.188-.362-5.188-.362zm21.018-7.519c-1.545.248-4.386.789-4.386.789l2.287-14.89c-.646 3.071-4.474 16.211-8.12 20.278 1.91-1.616 6.158-2.391 8.324-2.704 10.236-1.484 10.232-1.483 41.062-4.94 0 0-29.071-.155-39.167 1.467z" fill="#e1ac8f" stroke-width="none"/><path id="SvgjsPath2896" d="M195.417 199.778c-2.196-4.746-8.195-11.779-14.86-13.722-8.239-2.403-26.837-5.308-33.733-6.923-5.528-1.296-16.662-11.294-20.564-14.65-.7-.6-1.273-1.839-1.287-2.76-.139-10.864 4.195-39.724 4.195-39.724H70.833s4.334 28.859 4.193 39.724c-.011.921-.587 2.16-1.285 2.76-3.902 3.356-15.036 13.354-20.564 14.65-6.897 1.615-25.495 4.619-33.733 7.022-6.667 1.942-12.664 8.876-14.86 13.622-3.708 8.008-4.584 22.5-4.584 35h200c0-12.499-.877-26.991-4.583-34.999z" fill="none" stroke="#c27b55" stroke-width="1.5"/></g><g id="svga-group-chinshadow-single"><path id="SvgjsPath3921" d="M75.517 163.052c6.979 4.54 16.307 8.814 24.485 8.814 7.828 0 17.345-4.309 24.458-8.869a4.208 4.208 0 0 1-.239-1.264c-.126-9.877 3.345-34.021 4.076-38.983H71.703c.73 4.963 4.202 29.106 4.074 38.982a4.202 4.202 0 0 1-.26 1.32z" fill="url(#SvgjsLinearGradient3922)"/></g><g id="svga-group-clothes-single" stroke-width="none"><path id="SvgjsPath4029" d="M128.857 237.978H70.72v-56.183c22.25 4.699 36.88 4.337 58.138 0v56.183z" fill="#f3f1f3"/><path id="SvgjsPath4030" d="M107.44 237.709c-2.775 0-10.727.208-16.512-.23l-.01-.171c-.818-18.658 1.129-30.719 4.537-39.288l.048-.123-.093-.093c-.905-.904-2.425-1.935-4.034-3.025-1.611-1.093-3.275-2.221-4.336-3.246.625-.732 1.395-1.454 2.348-2.201.245-.125 1.162-.843 5.974-4.971l.362-.31c.818-.178 2.138-.293 3.738-.293 2.183 0 4.731.221 6.512.563 1.561 1.458 3.451 5.329 4.158 7.17-.976 2.291-2.128 3.129-3.717 4.284-.774.563-1.652 1.201-2.652 2.112l-.083.075.021.111c4.026 20.31 4.027 25.054 4.027 29.642.001 2.021.001 6.609.339 9.985-.15.007-.363.009-.627.009z" fill="#131111"/><path id="SvgjsPath4031" d="M110.35 191.495c-.754-1.995-2.71-5.93-4.28-7.359-2.876-.563-7.983-.843-10.47-.24-.108.088-6.248 5.383-6.31 5.26-.906.708-1.788 1.504-2.52 2.39 2.061 2.076 6.655 4.556 8.5 6.4-3.65 9.18-5.33 21.59-4.55 39.38.01.11.01.23.02.34 6.756.52 16.55.331 17.55.223-1.16-11.307 1.438-10.455-4.39-39.853 3.068-2.795 4.965-2.996 6.45-6.541zm-5.25 19.04c-.021-.05-.04-.1-.051-.13 2 10.55 1.38 18.632 2.891 26.972-4.736-.318-12.014-.052-16.771-.052.369-7.198 1.188-31.684 4.74-39.74.17-.046.339-.084.509-.125l-1.032 34.736 2.747-35.066.06-.008 1.801 32.605.417-32.734h.077l4.199 36.355-2.3-36.137c.314.063.629.141.942.233.03 0 .07.01.1.03.104 1.002.936 8.402 1.671 13.061zm-.881-13.809c-2.774-1.251-6.363-1.026-9.129.24-1.681-1.813-4.08-3.077-7.53-5.391a51.98 51.98 0 0 1 2.21-1.81c.08 0 3.48-2.771 3.54-2.83.92-.84 1.74-1.79 2.52-2.62 2.93-.12 7.23.02 9.82.14 1.5 1.876 2.931 4.696 4.01 6.94-1.961 2.871-3.901 4.15-5.441 5.331z"/><path id="SvgjsPath4032" d="M78.196 213.077c-11.534-40.071-6.325-29.581-9.399-45.32 2.028-4.813 3.958-10.44 5.042-11.598l.08-.086c2.292 24.007 8.958 13.636 23.784 27.722-8.475 5.654-16.331 20.332-19.507 29.282zm52.997-45.319c-1.448-3.702-4.077-9.127-5.215-10.331 1.424 20.678-15.146 16.551-24.35 26.2 8.812 5.713 17.173 20.66 20.172 29.455 13.12-43.514 6.05-24.409 9.393-45.324z" fill="#f3f1f4"/><path id="SvgjsPath4033" d="M125.801 156.967c0 5.137-.42 9.162-1.262 10.339-2.443 5.809-13.103 9.853-16.39 11.51-2.495 1.227-4.942 2.809-6.83 4.85 3.813 2.476 5.705 3.383 12.93 14.44 4.246 7.109 6.539 12.448 7.561 15.64 13.378-44.331 6.222-24.978 9.59-46.01-1.586-4.086-4.599-9.851-5.599-10.769zm3.648 19.528c-1.957 18.078-3.491 14.485-7.74 34.181-2.716-8.644-11.075-22.913-19.43-27.091 3.937-2.957 5.031-3.131 9.729-5.279 14.396-6.42 14.985-12.385 14.138-20.271 1.207 1.423 3.125 6.161 4.692 9.521-.859 3.146-1.249 7.638-1.389 8.939zm-50.25-4.599c-4.408-3.649-3.16-8.162-5.189-16.215-.902 1-3.146 6.632-5.42 12.055.557 2.796.681 7.389.76 8.84.559 12.202 1.75 12.765 8.83 37.16 3.031-8.905 11.558-24.37 20.24-30.009-6.931-6.326-15.655-8.728-19.221-11.831zm5.46 25.509c-2.221 3.666-4.517 7.48-6.37 13.28-4.442-20.269-5.999-16.964-7.73-34.16-.32-2.971-.617-6.027-1.4-8.96 1.638-3.588 3.981-10.281 4.731-10.995 1.366 7.078.066 13.462 5.669 16.995 2.621 1.996 11.104 5.32 17.52 10.36-3.891 2.31-5.985 3.671-12.42 13.48z" fill="#cfc8d7"/><path id="SvgjsPath4034" d="M120.319 209.824l-1.209-2.654s9.148-28.175 10.743-36.225c.912 8.354-9.534 38.879-9.534 38.879zm-41.44-1.103l1.436-3.259s-8.573-26.467-10.168-34.517c-.912 8.354 8.732 37.776 8.732 37.776z" fill="#e1e0e1"/><path id="SvgjsPath4035" d="M124.787 195.605c7.065-20.834 2.756-22.551 6.305-29.469.134-.261 1.396 1.046 1.533 1.64 1.306 5.658 53.349 17.338 54.994 18.598 1.456 1.058 5.65 3.137 5.65 3.137 4.937 9.07 7.762 10.698 9.15 34.984.13 3.083-.061 11.801-.061 14.141l-85.559-.676c.205-7.791 1.2-21.81 7.988-42.355zm-49.574 0c-7.065-20.834-2.756-22.551-6.305-29.469-.134-.261-1.396 1.046-1.533 1.64-1.306 5.658-53.349 17.338-54.994 18.598-1.456 1.058-5.65 3.137-5.65 3.137-4.937 9.07-7.762 10.698-9.15 34.984-.13 3.083.061 11.801.061 14.141l85.559-.676c-.205-7.791-1.2-21.81-7.988-42.355z" fill="#1d282e"/><path id="SvgjsPath4036" d="M130.307 190c-4.552 16.387-10.771 31.116-13.506 47.96-.89-.007 1.491-22.695 7.986-42.354 7.065-20.834 2.756-22.551 6.305-29.469.077-.15-.619 1.976-.223 2.432-.146 7.727 1.756 13.703-.562 21.431zm-60.614 0c4.552 16.387 10.771 31.116 13.506 47.96.89-.007-1.491-22.695-7.986-42.354-7.065-20.834-2.756-22.551-6.305-29.469-.077-.15.619 1.976.223 2.432.146 7.727-1.756 13.703.562 21.431z" fill="#101a1f"/><path id="SvgjsPath4037" d="M152.436 186.031s-2.284 2.561-8.636 6.923c5.313-5.885 7.761-8.249 7.761-8.249l.875 1.326zm2.175 11.875l-1.528-1.367c-4.538 13.781-7.571 20.587-12.828 36.618 7.544-14.326 9.344-19.412 14.356-35.251zM48.439 184.705s2.447 2.364 7.761 8.249c-6.352-4.362-8.636-6.923-8.636-6.923l.875-1.326zm11.306 48.452c-5.257-16.031-8.29-22.837-12.828-36.618l-1.528 1.367c5.012 15.839 6.812 20.925 14.356 35.251z" fill="#070c0f"/><path id="SvgjsPath4038" d="M179.409 219.335c0-11.596 3.11-18.351 9.615-28.142.608.372.931.543 1.345.875-6.917 8.583-8.291 16.591-10.96 27.267zm-38.097 11.368c6.113-16.703 8.06-23.228 12.107-34.388-1.15-.351-8.671-2.985-9.819-3.346.41 1 3.113 1.822 7.822 4.709 0 .001-5.089 15.404-10.11 33.025zm8.221-46.126s-3.352 4.14-6.664 8.328c3.388-2.67 5.748-5.644 8.691-8.2-3.994-3.368-10.511-8.524-14.721-12.089 3.324 3.572 12.694 11.961 12.694 11.961zm52.54 54.057l.286.002c0-2.34.19-11.058.061-14.141-1.389-24.286-4.214-25.914-9.15-34.984 0 0-4.194-2.079-5.65-3.137-1.334-1.021-38.794-9.922-52.49-15.88 16.011 10.971 46.282 15.027 55.24 21.574 4.332 3.167 10.165 30.269 11.703 46.566zM9.613 192.037c.542-.383.619-.366 1.168-.729 6.505 9.791 9.809 16.431 9.809 28.026-2.668-10.675-4.51-19.016-10.977-27.297zm38.965 5.642c4.709-2.887 7.412-3.709 7.822-4.709-1.148.36-8.669 2.995-9.819 3.346 4.048 11.16 5.994 17.685 12.107 34.388a936.855 936.855 0 0 0-10.11-33.025zm14.582-25.063c-4.21 3.564-10.727 8.721-14.721 12.089 2.943 2.557 5.304 5.53 8.691 8.2-3.313-4.188-6.664-8.328-6.664-8.328s9.371-8.389 12.694-11.961zM9.631 192.068c8.958-6.547 39.229-10.604 55.24-21.574-13.696 5.958-51.156 14.858-52.49 15.88-1.456 1.058-5.65 3.137-5.65 3.137-4.937 9.07-7.762 10.698-9.15 34.984-.13 3.083.061 11.801.061 14.141l.286-.002c1.537-16.297 7.37-43.399 11.703-46.566z" fill="#2d373d"/><path id="SvgjsPath4039" d="M132.246 166.374c-.049-.293-.443-.634-.738-.657-.296-.023-.432.458-.567.722-3.549 6.918.414 8.333-6.651 29.167-6.788 20.545-7.584 34.862-7.787 42.653l85.857.377c0-2.34.489-11.058.359-14.141-1.389-24.286-4.313-26.113-9.25-35.184 0 0-4.394-2.179-5.85-3.236-4.889-3.742-.59.023-22.03-6-17.576-5.135-18.525-6.577-24.899-8.35-1.288-.369-4.057-.822-6.95-2.851-.265-.185-1.399-1.93-1.494-2.5zm-15.272 70.936c3.729-23.564 6.085-29.73 11.296-47.274 3.522-11.104 1.576-17.408 3.254-22.54.088-.268.467-.282.571-.017 2.434 6.214 9.238 7.656 18.834 17.047-5.813 5.813-7.309 7.38-8.06 8.38.864.438 5.582 2.229 9.9 3.9-.245.767-13.415 38.02-13.57 38.52 10-21.578 11.292-28.211 14.22-39.01-.812-.612-7.892-3.212-9.09-3.64 4.274-4.424 5.51-5.396 7.53-7.971 1.622 0-15.874-13.318-16.73-14.211.462.364 2.752 1.391 3.01 1.491 14.682 5.166 3.065 2.829 35.2 12.001 3.072.781 7.355 1.567 10.53 1.879.218.02 5.395 2.727 8.35 3.97-7.189 7.475-11.797 17.133-12.81 29.5 3.219-12.666 4.951-19.29 13.14-28.819 7.62 15.422 6.755 13.195 9.23 47.71-20.612-.813-52.22-.999-84.805-.916zm-50.713-68.435c-2.894 2.028-5.662 2.481-6.95 2.851-6.374 1.772-7.323 3.215-24.899 8.35-21.44 6.023-17.142 2.258-22.03 6-1.456 1.058-5.85 3.236-5.85 3.236-4.937 9.07-7.861 10.897-9.25 35.184-.13 3.083.359 11.801.359 14.141l85.857-.377c-.203-7.791-.999-22.108-7.787-42.653-7.065-20.834-3.103-22.249-6.651-29.167-.136-.264-.271-.745-.567-.722-.295.023-.689.364-.738.657-.096.569-1.23 2.314-1.494 2.5zm-68.04 69.351c2.476-34.515 1.61-32.288 9.23-47.71 8.188 9.529 9.921 16.153 13.14 28.819-1.013-12.367-5.62-22.025-12.81-29.5 2.955-1.243 8.132-3.95 8.35-3.97 3.175-.312 7.458-1.098 10.53-1.879 32.135-9.172 20.519-6.835 35.2-12.001.258-.101 2.548-1.127 3.01-1.491-.856.893-18.353 14.211-16.73 14.211 2.021 2.575 3.256 3.547 7.53 7.971-1.198.428-8.278 3.027-9.09 3.64 2.928 10.799 4.22 17.432 14.22 39.01-.155-.5-13.325-37.753-13.57-38.52 4.318-1.672 9.036-3.463 9.9-3.9-.751-1-2.247-2.567-8.06-8.38 9.596-9.391 16.4-10.833 18.834-17.047.104-.266.483-.251.571.017 1.678 5.132-.269 11.436 3.254 22.54 5.211 17.544 7.567 23.71 11.296 47.274-32.585-.083-64.193.103-84.805.916z"/></g><g id="svga-group-head"><g id="svga-group-ears-left"><path id="SvgjsPath2906" d="M45.671 84.344c-1.485-2.462-6.327-9.199-10.031-8.254-3.012.772-2.973 4.971-3.206 7.455-.34 3.644-.464 9.992.525 12.568.951 2.473 3.96 7.252 5.828 9.075 2.299 2.235 5.97 9.358 6.422 10.097.711 1.168 2.137 2.84 4.325 2.708 3.071-.185 5.724-3.087 5.965-4.485 1.301-7.59-5.963-22.758-9.828-29.164z" fill="#f0c7b1" stroke="#c27b55" stroke-width="1.5"/><path id="SvgjsPath2907" d="M44.2 99.341c-.143-.563.007-1.513.154-2.429.133-.835.258-1.624.182-2.182-.289-2.09-1.915-6.06-2.976-8.212-1.223-2.476-3.199-5.595-5.679-6.399-1.024-.333-1.699.065-2.089.468-.288.296-.353.645-.259.687.095.041.307-.248.617-.519.254-.222-.508-.04 0 0-.205 1.04-.865 6.302-.41 10.143.358 3.022 1.05 5.279 1.263 5.617.031.356.083.705.16 1.043 1.002 4.41 7.518 10.177 9.034 11.82.28.303.574.483.646.409s-.101-.373-.379-.678c-1.498-1.632-7.971-7.381-8.939-11.635-1.027-4.514 3.912-11.207 4.699-12.623.401.665.742 1.303 1.004 1.835.207.417.434.906.67 1.435-.463.738-5.118 6.127-3.934 10.441.438 1.591 3.822 3.642 5.131 4.203.72.31.99.772 1.304 1.306.364.624.033 2.229 1.23 2.739.244.104.464.146.659.146.338 0 .594-.13.783-.284.02.271.019.619.009.941-.012.418.047.609.148.617.103.009.21-.174.223-.587.017-.51.014-1.141-.077-1.444-.269-.889-1.088-1.894-1.957-2.957-.854-1.045-.995-3.029-1.217-3.901zm-9.231-3.909c-2.348-6.923 1.283-13.229 1.81-14.179 1.012.399 2.562 2.193 3.221 3.235-.48.833-4.933 6.287-5.031 10.944zm10.803 11.032c-1.084-.462-.706-1.984-1.056-2.584-.318-.542-.646-1.102-1.479-1.46a3.89 3.89 0 0 1-.583-.332c-2.682-6.075.293-8.73 1.039-9.273.229.742.399 1.423.476 1.97.068.5-.059 1.298-.181 2.068-.153.955-.31 1.944-.147 2.584.244.953.411 2.97 1.291 4.048.781.956 1.583 1.942 1.857 2.746-.118.16-.489.544-1.217.233z" fill="#c27b55" stroke-width="none"/></g><g id="svga-group-ears-right"><path id="SvgjsPath2908" d="M154.066 84.344c1.486-2.462 6.328-9.199 10.031-8.254 3.012.772 2.973 4.971 3.207 7.455.34 3.644.463 9.992-.525 12.568-.951 2.473-3.961 7.252-5.828 9.075-2.299 2.235-5.971 9.358-6.422 10.097-.711 1.168-2.137 2.84-4.326 2.708-3.07-.185-5.723-3.087-5.965-4.485-1.3-7.59 5.965-22.758 9.828-29.164z" fill="#f0c7b1" stroke="#c27b55" stroke-width="1.5"/><path id="SvgjsPath2909" d="M154.322 103.243c-.869 1.063-1.688 2.068-1.957 2.957-.092.304-.094.935-.078 1.444.014.413.121.596.225.587.102-.008.16-.199.148-.617a9.69 9.69 0 0 1 .008-.941c.189.154.445.284.783.284.195 0 .416-.042.66-.146 1.195-.511.865-2.116 1.229-2.739.314-.534.584-.997 1.305-1.306 1.309-.561 4.693-2.611 5.131-4.203 1.184-4.314-3.471-9.704-3.934-10.441.234-.529.463-1.018.668-1.435.264-.532.604-1.171 1.006-1.835.787 1.416 5.725 8.108 4.699 12.623-.969 4.254-7.441 10.003-8.939 11.635-.279.305-.453.604-.381.678.074.074.367-.106.646-.409 1.516-1.643 8.031-7.41 9.033-11.82.078-.338.131-.687.162-1.043.211-.337.904-2.594 1.262-5.617.455-3.841-.205-9.103-.41-10.143.508-.04-.254-.222 0 0 .311.271.523.56.617.519.094-.042.029-.39-.258-.687-.391-.403-1.066-.801-2.09-.468-2.48.804-4.457 3.923-5.68 6.399-1.061 2.152-2.686 6.122-2.975 8.212-.076.558.049 1.347.182 2.182.146.916.297 1.866.154 2.429-.222.871-.362 2.855-1.216 3.901zm5.416-18.755c.66-1.042 2.209-2.835 3.221-3.235.527.95 4.158 7.256 1.811 14.179-.098-4.657-4.551-10.111-5.032-10.944zm-6.988 21.741c.273-.804 1.076-1.79 1.857-2.746.879-1.078 1.047-3.095 1.291-4.048.162-.64.006-1.629-.146-2.584-.123-.77-.25-1.568-.182-2.068.076-.547.246-1.228.475-1.97.746.543 3.721 3.199 1.039 9.273a3.754 3.754 0 0 1-.584.332c-.832.358-1.16.918-1.479 1.46-.35.6.029 2.123-1.055 2.584-.728.313-1.099-.071-1.216-.233z" fill="#c27b55" stroke-width="none"/></g><g id="svga-group-faceshape-wrap"><g id="svga-group-faceshape-single"><path id="SvgjsPath3918" d="M100.002.867C66.384.92 39.082 28.536 39.134 62.56a62.463 62.463 0 0 0 2.002 15.634h.001c.012.054 8.341 20.48 10.463 33.205 2.38 14.276 10.462 30.232 16.302 35.786 6.052 5.756 20.281 14.682 32.099 14.682 11.267 0 26.046-8.926 32.099-14.682 5.84-5.554 13.922-21.51 16.302-35.786 2.122-12.725 10.452-33.151 10.463-33.205h.002a62.422 62.422 0 0 0 2.002-15.634C160.923 28.536 133.62.92 100.002.867z" fill="#f0c7b1" stroke-width="none"/><path id="SvgjsPath3919" d="M136.901 13.53c12.866 11.318 21.063 28.416 21.036 47.539a65.502 65.502 0 0 1-1.906 15.634h-.001c-.011.054-7.939 20.48-9.959 33.205-2.267 14.277-9.959 30.233-15.517 35.786-5.761 5.757-19.828 14.683-30.552 14.683-11.249 0-24.792-8.926-30.552-14.683-5.558-5.553-13.25-21.509-15.516-35.786-2.02-12.724-9.948-33.15-9.959-33.205h-.001a65.4 65.4 0 0 1-1.906-15.634c-.028-19.122 8.168-36.218 21.033-47.537C48.519 24.809 39.104 42.574 39.134 62.56a62.463 62.463 0 0 0 2.002 15.634h.001c.012.054 8.341 20.48 10.463 33.205 2.38 14.276 10.462 30.232 16.302 35.786 6.052 5.756 20.281 14.682 32.099 14.682 11.267 0 26.046-8.926 32.099-14.682 5.84-5.554 13.922-21.51 16.302-35.786 2.122-12.725 10.452-33.151 10.463-33.205h.002a62.422 62.422 0 0 0 2.002-15.634c.032-19.987-9.384-37.754-23.968-49.03z" fill="#e8b9a0" stroke-width="none"/><path id="SvgjsPath3920" d="M100.002.867C66.384.92 39.082 28.536 39.134 62.56a62.463 62.463 0 0 0 2.002 15.634h.001c.012.054 8.341 20.48 10.463 33.205 2.38 14.276 10.462 30.232 16.302 35.786 6.052 5.756 20.281 14.682 32.099 14.682 11.267 0 26.046-8.926 32.099-14.682 5.84-5.554 13.922-21.51 16.302-35.786 2.122-12.725 10.452-33.151 10.463-33.205h.002a62.422 62.422 0 0 0 2.002-15.634C160.923 28.536 133.62.92 100.002.867z" fill="none" stroke="#c27b55" stroke-width="1.5"/></g></g><g id="svga-group-mouth-single"><path id="SvgjsPath3968" d="M100.34 141.925c-1.526 0-2.998-.193-3.9-.547a.5.5 0 0 1 .365-.931c1.664.653 5.855.676 7.704-.193a.5.5 0 0 1 .426.904c-1.12.526-2.891.767-4.595.767zm14.685-8.481a.786.786 0 0 0-.618-1.444c-11.666 4.992-28.742.338-28.912.292a.786.786 0 1 0-.422 1.514c.463.128 7.692 2.1 16.034 2.1 4.62-.001 9.578-.605 13.918-2.462z" fill="#c27b55" stroke-width="none"/></g><g id="svga-group-eyes-left"><g id="svga-group-eyesback-left"><path id="SvgjsPath3772" d="M61.752 82.523c-.506-2.285 5.191-3.973 12.711-3.051 7.518.923 12.738 5.524 12.052 7.844-.38 1.286-10.639 3.245-14.253 2.847-3.664-.405-9.288-2.123-10.51-7.64z" fill="url(#SvgjsRadialGradient3773)"/></g><g id="svga-group-eyesiriswrapper-left" transform="translate(.25 .25)"><g id="svga-group-eyesiriscontrol-left"><g id="svga-group-eyesiris-left"><path id="SvgjsPath3974" d="M80 84a6 6 0 0 1-12 0 6 6 0 0 1 12 0z" fill="#4e60a3" stroke-width="none"/><path id="SvgjsPath3975" d="M73.328 78.066l-.071.009.085.406c-.006-.137-.009-.277-.014-.415zm.013.414c.07 1.972.185 3.729.517 4.364.175-.696-.123-2.43-.517-4.364zm.518 4.365c-.043.167-.108.281-.208.319-.1.038-.226-.006-.368-.103.041.167.037.297-.036.378-.072.081-.201.101-.373.078.113.13.171.249.146.353-.027.104-.134.182-.293.242.159.063.266.141.291.245.025.104-.033.223-.145.352.17-.021.301.001.371.082.071.081.075.212.035.379.141-.097.265-.139.365-.1.101.038.166.152.206.32.081-.152.171-.249.28-.26.104-.014.216.059.329.188.001-.172.037-.299.127-.36.088-.061.219-.049.379.013-.078-.152-.105-.281-.055-.377.05-.095.173-.146.344-.166-.141-.099-.227-.2-.225-.308 0-.108.084-.209.227-.306-.17-.021-.291-.072-.342-.167-.049-.095-.022-.225.058-.377-.162.06-.292.072-.38.011-.089-.061-.125-.188-.125-.36-.112.128-.224.199-.33.185-.108-.014-.199-.108-.278-.261zm.607.075c.479-.535 1.021-2.209 1.57-4.104-.854 1.777-1.569 3.386-1.57 4.104zm1.569-4.104c.06-.122.121-.246.178-.37-.021-.007-.042-.017-.063-.026-.038.133-.076.266-.115.396zm-1.063 4.454c.672-.252 1.931-1.483 3.297-2.905-1.581 1.176-2.963 2.269-3.297 2.905zm3.297-2.905l.305-.225c-.014-.018-.03-.033-.042-.049-.087.09-.174.183-.263.274zm-3.015 3.449c.713.088 2.4-.417 4.272-1.041-1.948.308-3.678.633-4.272 1.041zm4.272-1.04l.337-.052-.014-.057-.323.109zm-4.273 1.653c.59.412 2.318.747 4.262 1.063-1.865-.633-3.548-1.148-4.262-1.063zm4.263 1.063c.095.033.191.067.285.098a.454.454 0 0 0 .012-.05 18.227 18.227 0 0 1-.297-.048zm-4.551-.52c.333.637 1.708 1.738 3.282 2.924-1.359-1.43-2.609-2.668-3.282-2.924zm3.283 2.922l.179.189.03-.032c-.07-.052-.142-.105-.209-.157zm-3.788-2.575c-.003.719.703 2.331 1.547 4.113-.539-1.897-1.07-3.575-1.547-4.113zm1.547 4.114c.021.075.043.152.063.229l.039-.014a8.622 8.622 0 0 0-.102-.215zm-2.156-4.042c-.336.637-.461 2.39-.542 4.361.404-1.93.713-3.663.542-4.361zm-.542 4.361c-.017.075-.031.151-.047.228.014.003.025.003.039.005l.008-.233zm-.029-4.581c-.596.407-1.521 1.904-2.508 3.61 1.254-1.52 2.334-2.912 2.508-3.61zm-2.508 3.61l-.162.193.038.024.124-.217zm2.103-4.069c-.716.083-2.231.978-3.898 2.029 1.818-.762 3.418-1.491 3.898-2.029zm-3.899 2.031l-.263.11c.006.013.015.027.023.04.081-.049.161-.1.24-.15zm3.752-2.628c-.671-.257-2.429-.168-4.395-.011 1.964.168 3.722.265 4.395.011zm-4.395-.011a38.67 38.67 0 0 0-.323-.029c0 .019-.002.038 0 .056l.323-.027zm4.542-.583c-.473-.539-2.069-1.277-3.881-2.051 1.659 1.06 3.169 1.964 3.881 2.051zm-3.881-2.051a43.261 43.261 0 0 0-.315-.201.71.71 0 0 1-.029.055c.116.049.232.097.344.146zm4.29 1.593c-.169-.698-1.241-2.094-2.485-3.623.976 1.712 1.893 3.213 2.485 3.623zm-2.485-3.623c-.067-.115-.132-.232-.199-.349l-.056.039c.084.103.172.207.255.31z" fill="url(#SvgjsRadialGradient3976)" opacity=".7"/><path id="SvgjsPath3979" d="M74.886 78.086l-.07-.01-.024.414c.03-.134.063-.27.094-.404zm-.095.403c-.442 1.922-.787 3.649-.629 4.35.349-.628.509-2.38.629-4.35zm-.63 4.35c-.084.15-.176.243-.283.254-.106.01-.216-.064-.327-.195-.004.171-.042.297-.133.356-.09.059-.221.045-.38-.021.076.155.101.285.049.378-.053.094-.176.142-.345.158.137.101.22.204.217.312-.002.107-.089.207-.231.302.169.024.29.079.337.174.048.096.018.225-.064.375.161-.057.292-.065.379-.002.087.063.12.19.116.363.117-.125.229-.196.337-.179.105.014.194.113.27.268.045-.167.113-.279.216-.315.101-.036.225.01.363.111-.036-.167-.029-.299.044-.378.073-.079.205-.096.376-.072-.111-.132-.168-.251-.138-.355.028-.104.136-.18.299-.237-.16-.064-.263-.145-.288-.25-.023-.105.037-.223.154-.349-.172.016-.301-.006-.37-.088-.07-.082-.072-.214-.028-.379-.142.094-.268.134-.367.093-.103-.041-.165-.156-.203-.324zm.568.231c.601-.394 1.557-1.871 2.578-3.558-1.285 1.495-2.391 2.863-2.578 3.558zm2.578-3.559c.089-.102.18-.206.268-.311-.019-.013-.036-.028-.055-.042-.071.119-.142.238-.213.353zm-2.18 4.027c.715-.07 2.25-.934 3.937-1.953-1.833.727-3.45 1.425-3.937 1.953zm3.936-1.954l.354-.138c-.01-.021-.021-.04-.028-.059-.108.066-.216.133-.326.197zm-3.804 2.553c.666.27 2.426.218 4.395.101-1.961-.208-3.716-.342-4.395-.101zm4.395.1l.339.037.002-.058-.341.021zm-4.554.492c.462.551 2.046 1.321 3.842 2.129-1.639-1.095-3.131-2.027-3.842-2.129zm3.841 2.129c.083.057.167.114.25.168a1.01 1.01 0 0 0 .025-.045c-.09-.039-.184-.081-.275-.123zm-4.261-1.679c.156.701 1.2 2.12 2.414 3.674-.943-1.734-1.83-3.254-2.414-3.674zm2.414 3.671l.125.229c.012-.009.024-.016.037-.024l-.162-.205zm-2.991-3.467c-.188.693.076 2.433.43 4.373-.031-1.972-.109-3.73-.43-4.373zm.429 4.373c.001.078.003.158.003.238.014-.002.027-.004.041-.004a19.229 19.229 0 0 0-.044-.234zm-1.036-4.462c-.49.528-1.064 2.189-1.652 4.072.889-1.759 1.637-3.353 1.652-4.072zm-1.653 4.072l-.104.208.036.015.068-.223zM73 84.934c-.68.239-1.962 1.446-3.357 2.838 1.607-1.144 3.009-2.209 3.357-2.838zm-3.356 2.838l-.205.145c.01.011.02.02.029.032.057-.059.117-.117.176-.177zm3.084-3.387c-.713-.104-2.407.368-4.291.952 1.955-.266 3.688-.556 4.291-.952zm-4.291.954c-.092.013-.187.024-.283.039a.32.32 0 0 0 .013.044c.091-.026.181-.056.27-.083zm4.304-1.567c-.582-.423-2.303-.792-4.242-1.149 1.854.671 3.526 1.22 4.242 1.149zm-4.242-1.149l-.305-.112-.015.054.32.058zm4.539.612c-.318-.643-1.668-1.769-3.219-2.986 1.328 1.455 2.553 2.719 3.219 2.986zm-3.22-2.985l-.251-.275-.042.046c.099.076.198.152.293.229zm3.733 2.649c.017-.718-.656-2.344-1.464-4.142.5 1.906.998 3.593 1.464 4.142zm-1.464-4.142l-.101-.389a1.17 1.17 0 0 0-.063.023l.164.366z" fill="url(#SvgjsRadialGradient3980)" opacity=".4"/><path id="SvgjsPath3983" d="M76.354 84a2.352 2.352 0 1 1-4.707 0 2.353 2.353 0 1 1 4.707 0z" fill="#4e60a3" stroke-width="none"/><path id="SvgjsPath3984" d="M76.354 84a2.352 2.352 0 1 1-4.707 0 2.353 2.353 0 1 1 4.707 0z" stroke-width="none" opacity=".9"/><path id="SvgjsPath3985" d="M70.717 86.748a.981.981 0 1 1 1.091 1.63.981.981 0 0 1-1.091-1.63z" fill="url(#SvgjsLinearGradient3986)" opacity=".5"/><path id="SvgjsPath3989" d="M75.86 83.672c-.251.374-.969.331-1.606-.096-.638-.427-.95-1.078-.7-1.451v-.001c.25-.374.969-.331 1.605.097.639.426.951 1.076.701 1.451z" fill="url(#SvgjsLinearGradient3990)" opacity=".5"/><path id="SvgjsPath3993" d="M78.716 82.673c-.568.873-2.036.925-3.275.117-1.24-.808-1.784-2.17-1.215-3.043.568-.872 2.036-.924 3.275-.117 1.239.809 1.783 2.172 1.215 3.043z" fill="url(#SvgjsLinearGradient3994)" opacity=".75"/></g></g></g><g id="svga-group-eyesfront-left"><path id="SvgjsPath3794" d="M53.294 83c.809 10.899 11.637 23.583 20.506 22.236 10.498.106 20.864-7.868 20.864-22.305s-5.087-26.528-21.127-26.528c-11.5-.001-20.243 12.16-20.243 26.597zm8.458-.477c-.506-2.285 5.191-3.973 12.711-3.051 7.518.923 12.738 5.524 12.052 7.844-.38 1.286-10.639 3.245-14.253 2.847-3.664-.405-9.288-2.123-10.51-7.64z" fill="#f0c7b1" stroke-width="none"/><path id="SvgjsPath3795" d="M72.262 90.163c3.614.398 13.873-1.561 14.253-2.847.687-2.32-4.534-6.921-12.052-7.844-6.46-.792-11.563.344-12.556 2.128.898-6.4 7.7-11.397 15.987-11.434 8.911-.037 16.148 5.676 16.172 12.765.021 7.088-7.185 12.862-16.095 12.902-8.913.037-16.149-5.676-16.173-12.764 0-.105.016-.208.019-.313 1.33 5.327 6.834 7.008 10.445 7.407z" fill="url(#SvgjsRadialGradient3796)"/><path id="SvgjsPath3800" d="M61.752 82.523c-.506-2.285 5.191-3.973 12.711-3.051 7.518.923 12.738 5.524 12.052 7.844-.38 1.286-10.639 3.245-14.253 2.847-3.664-.405-9.288-2.123-10.51-7.64z" fill="url(#SvgjsRadialGradient3801)"/><path id="SvgjsPath3804" d="M62.148 77.417c4.208-1.978 9.35-2.16 13.838-1.005 2.404.561 4.965 1.285 7.063 2.638 1.945 1.135 3.525 2.5 5.002 4.19-1.342-1.701-2.773-3.118-4.623-4.27-2.276-1.416-4.769-2.294-7.364-2.916-4.586-1.126-9.722-.87-13.916 1.363z" fill="#c27b55" stroke-width="none"/><path id="SvgjsPath3805" d="M62.769 78.02c.88-.352 4.065-1 5.456-1.066 1.687-.082 5.073.125 6.735.424 3.374.608 9.251 2.483 11.678 7.184.746 1.445.074 2.456-.123 2.675.3-2.426-4.838-6.746-12.052-7.604-7.52-.894-13.217.743-12.711 2.958 1.222 5.348 6.846 7.013 10.51 7.405 4.099.439 11.684-1.539 12.686-1.753-1.999 1.009-7.524 2.095-9.767 2.303-.744.07-2.24.104-2.986.085-5.949-.158-10.169-3.175-11.729-7.26-1.002-2.626.094-4.469 2.303-5.351z" stroke-width="none"/></g></g><g id="svga-group-eyes-right"><g id="svga-group-eyesback-right"><path id="SvgjsPath3779" d="M137.849 82.523c.506-2.285-5.191-3.973-12.711-3.051-7.518.923-12.738 5.524-12.052 7.844.38 1.286 10.639 3.245 14.253 2.847 3.664-.405 9.288-2.123 10.51-7.64z" fill="url(#SvgjsRadialGradient3780)"/></g><g id="svga-group-eyesiriswrapper-right" transform="translate(-.25 .25)"><g id="svga-group-eyesiriscontrol-right"><g id="svga-group-eyesiris-right"><path id="SvgjsPath3997" d="M132 84a6 6 0 0 1-12 0 6.001 6.001 0 0 1 12 0z" fill="#4e60a3" stroke-width="none"/><path id="SvgjsPath3998" d="M125.328 78.066l-.071.009c.029.135.058.271.085.406-.006-.137-.009-.277-.014-.415zm.013.414c.069 1.972.185 3.729.518 4.364.174-.696-.124-2.43-.518-4.364zm.517 4.365c-.042.167-.108.281-.207.319-.101.038-.226-.006-.367-.103.04.167.036.297-.036.378-.072.081-.201.101-.372.078.112.13.171.249.146.353-.028.104-.134.182-.293.242.158.063.265.141.29.245.025.104-.032.223-.145.352.17-.021.3.001.37.082.071.081.075.212.035.379.141-.097.266-.139.365-.1.102.038.166.152.206.32.08-.152.172-.249.279-.26.105-.014.217.059.329.188.002-.172.037-.299.128-.36.087-.061.219-.049.379.013-.078-.152-.104-.281-.056-.377.051-.095.174-.146.345-.166-.141-.099-.228-.2-.225-.308-.001-.108.084-.209.227-.306-.171-.021-.291-.072-.342-.167-.05-.095-.022-.225.057-.377-.161.06-.291.072-.38.011s-.124-.188-.125-.36c-.111.128-.224.199-.33.185-.107-.014-.198-.108-.278-.261zm.608.075c.479-.535 1.021-2.209 1.569-4.104-.853 1.777-1.567 3.386-1.569 4.104zm1.569-4.104c.06-.122.121-.246.179-.37-.021-.007-.042-.017-.063-.026l-.116.396zm-1.063 4.454c.673-.252 1.932-1.483 3.298-2.905-1.582 1.176-2.963 2.269-3.298 2.905zm3.298-2.905l.305-.225c-.015-.018-.03-.033-.042-.049-.088.09-.175.183-.263.274zm-3.015 3.449c.713.088 2.399-.417 4.271-1.041-1.948.308-3.678.633-4.271 1.041zm4.271-1.04l.337-.052-.014-.057-.323.109zm-4.273 1.653c.591.412 2.318.747 4.263 1.063-1.866-.633-3.549-1.148-4.263-1.063zm4.263 1.063c.095.033.19.067.285.098a.92.92 0 0 0 .013-.05 15.38 15.38 0 0 1-.298-.048zm-4.551-.52c.332.637 1.708 1.738 3.282 2.924-1.358-1.43-2.609-2.668-3.282-2.924zm3.283 2.922l.178.189c.01-.012.02-.021.031-.032-.07-.052-.142-.105-.209-.157zm-3.787-2.575c-.003.719.702 2.331 1.547 4.113-.54-1.897-1.071-3.575-1.547-4.113zm1.547 4.114c.021.075.043.152.063.229a.474.474 0 0 1 .039-.014 49.358 49.358 0 0 0-.102-.215zm-2.157-4.042c-.336.637-.461 2.39-.542 4.361.404-1.93.713-3.663.542-4.361zm-.542 4.361c-.017.075-.031.151-.047.228.014.003.024.003.039.005l.008-.233zm-.03-4.581c-.596.407-1.521 1.904-2.508 3.61 1.255-1.52 2.334-2.912 2.508-3.61zm-2.508 3.61c-.052.063-.107.13-.161.193.013.008.024.014.037.024l.124-.217zm2.103-4.069c-.716.083-2.23.978-3.897 2.029 1.818-.762 3.418-1.491 3.897-2.029zm-3.897 2.031c-.087.036-.175.072-.263.11a.273.273 0 0 0 .023.04l.24-.15zm3.752-2.628c-.672-.257-2.43-.168-4.396-.011 1.965.168 3.722.265 4.396.011zm-4.396-.011l-.322-.029c-.001.019-.003.038-.001.056l.323-.027zm4.543-.583c-.474-.539-2.069-1.277-3.882-2.051 1.659 1.06 3.169 1.964 3.882 2.051zm-3.882-2.051l-.315-.201a1.399 1.399 0 0 1-.028.055c.115.049.232.097.343.146zm4.29 1.593c-.169-.698-1.241-2.094-2.485-3.623.976 1.712 1.893 3.213 2.485 3.623zm-2.485-3.623a19.685 19.685 0 0 1-.198-.349l-.057.039c.085.103.172.207.255.31z" fill="url(#SvgjsRadialGradient3999)" opacity=".7"/><path id="SvgjsPath4002" d="M126.886 78.086l-.07-.01-.024.414c.029-.134.062-.27.094-.404zm-.095.403c-.443 1.922-.787 3.649-.63 4.35.35-.628.51-2.38.63-4.35zm-.63 4.35c-.084.15-.177.243-.283.254-.106.01-.216-.064-.327-.195-.004.171-.042.297-.133.356-.09.059-.221.045-.38-.021.075.155.101.285.049.378-.054.094-.176.142-.346.158.138.101.22.204.217.312-.002.107-.089.207-.23.302.17.024.289.079.337.174.048.096.018.225-.064.375.162-.057.293-.065.38-.002.087.063.12.19.115.363.117-.125.229-.196.337-.179.105.014.194.113.27.268.046-.167.113-.279.216-.315.101-.036.226.01.363.111-.035-.167-.028-.299.045-.378.072-.079.204-.096.375-.072-.11-.132-.168-.251-.138-.355.027-.104.136-.18.299-.237-.159-.064-.263-.145-.288-.25-.022-.105.038-.223.154-.349-.172.016-.302-.006-.37-.088-.07-.082-.072-.214-.027-.379-.143.094-.269.134-.368.093-.102-.041-.166-.156-.203-.324zm.568.231c.601-.394 1.557-1.871 2.578-3.558-1.285 1.495-2.391 2.863-2.578 3.558zm2.578-3.559c.089-.102.18-.206.269-.311-.02-.013-.037-.028-.056-.042-.071.119-.142.238-.213.353zm-2.18 4.027c.715-.07 2.249-.934 3.937-1.953-1.833.727-3.45 1.425-3.937 1.953zm3.936-1.954l.354-.138c-.01-.021-.021-.04-.028-.059-.108.066-.216.133-.326.197zm-3.804 2.553c.666.27 2.426.218 4.396.101-1.963-.208-3.717-.342-4.396-.101zm4.395.1l.339.037.002-.058-.341.021zm-4.554.492c.463.551 2.046 1.321 3.842 2.129-1.639-1.095-3.131-2.027-3.842-2.129zm3.841 2.129c.082.057.167.114.25.168a.328.328 0 0 0 .024-.045 15.678 15.678 0 0 1-.274-.123zm-4.26-1.679c.155.701 1.199 2.12 2.413 3.674-.943-1.734-1.829-3.254-2.413-3.674zm2.414 3.671l.124.229a.337.337 0 0 1 .037-.024c-.054-.068-.11-.138-.161-.205zm-2.992-3.467c-.188.693.076 2.433.43 4.373-.031-1.972-.109-3.73-.43-4.373zm.429 4.373c.001.078.003.158.003.238.015-.002.026-.004.04-.004a9.592 9.592 0 0 0-.043-.234zm-1.037-4.462c-.489.528-1.064 2.189-1.652 4.072.89-1.759 1.637-3.353 1.652-4.072zm-1.652 4.072l-.104.208.035.015.069-.223zM125 84.934c-.68.239-1.961 1.446-3.356 2.838 1.606-1.144 3.008-2.209 3.356-2.838zm-3.356 2.838l-.205.145c.01.011.02.02.029.032.057-.059.118-.117.176-.177zm3.084-3.387c-.713-.104-2.406.368-4.29.952 1.954-.266 3.688-.556 4.29-.952zm-4.29.954c-.093.013-.188.024-.283.039l.013.044c.09-.026.18-.056.27-.083zm4.303-1.567c-.582-.423-2.303-.792-4.242-1.149 1.854.671 3.526 1.22 4.242 1.149zm-4.242-1.149l-.305-.112a.752.752 0 0 0-.015.054l.32.058zm4.539.612c-.318-.643-1.669-1.769-3.22-2.986 1.329 1.455 2.554 2.719 3.22 2.986zm-3.22-2.985l-.251-.275-.043.046c.099.076.2.152.294.229zm3.733 2.649c.017-.718-.656-2.344-1.464-4.142.501 1.906.998 3.593 1.464 4.142zm-1.464-4.142l-.102-.389a1.17 1.17 0 0 0-.063.023l.165.366z" fill="url(#SvgjsRadialGradient4003)" opacity=".4"/><path id="SvgjsPath4006" d="M128.354 84a2.353 2.353 0 1 1-4.706 0 2.353 2.353 0 0 1 4.706 0z" fill="#4e60a3" stroke-width="none"/><path id="SvgjsPath4007" d="M128.354 84a2.353 2.353 0 1 1-4.706 0 2.353 2.353 0 0 1 4.706 0z" stroke-width="none" opacity=".9"/><path id="SvgjsPath4008" d="M122.718 86.748a.98.98 0 1 1 1.09 1.628.98.98 0 0 1-1.09-1.628z" fill="url(#SvgjsLinearGradient4009)" opacity=".5"/><path id="SvgjsPath4012" d="M127.859 83.672c-.251.374-.969.331-1.605-.096-.638-.427-.95-1.078-.7-1.451l.001-.001c.25-.374.969-.331 1.605.097.638.426.95 1.076.699 1.451z" fill="url(#SvgjsLinearGradient4013)" opacity=".5"/><path id="SvgjsPath4016" d="M130.717 82.673c-.569.873-2.036.925-3.276.117-1.239-.808-1.784-2.17-1.215-3.043.568-.872 2.035-.924 3.275-.117 1.239.809 1.783 2.172 1.216 3.043z" fill="url(#SvgjsLinearGradient4017)" opacity=".75"/></g></g></g><g id="svga-group-eyesfront-right"><path id="SvgjsPath3814" d="M126.063 56.402c-16.04 0-21.127 12.091-21.127 26.528s10.366 22.412 20.864 22.305c8.869 1.347 19.697-11.337 20.506-22.236.001-14.436-8.743-26.597-20.243-26.597zm1.276 33.761c-3.614.398-13.873-1.561-14.253-2.847-.687-2.32 4.534-6.921 12.052-7.844 7.52-.922 13.217.767 12.711 3.051-1.222 5.517-6.846 7.235-10.51 7.64z" fill="#f0c7b1" stroke-width="none"/><path id="SvgjsPath3815" d="M127.339 90.163c-3.614.398-13.873-1.561-14.253-2.847-.687-2.32 4.534-6.921 12.052-7.844 6.46-.792 11.563.345 12.556 2.128-.898-6.4-7.7-11.397-15.987-11.434-8.911-.037-16.148 5.676-16.172 12.765-.021 7.088 7.185 12.862 16.095 12.902 8.913.037 16.149-5.676 16.173-12.764 0-.105-.016-.208-.019-.313-1.331 5.327-6.835 7.008-10.445 7.407z" fill="url(#SvgjsRadialGradient3816)"/><path id="SvgjsPath3820" d="M137.849 82.523c.506-2.285-5.191-3.973-12.711-3.051-7.518.923-12.738 5.524-12.052 7.844.38 1.286 10.639 3.245 14.253 2.847 3.664-.405 9.288-2.123 10.51-7.64z" fill="url(#SvgjsRadialGradient3821)"/><path id="SvgjsPath3824" d="M137.452 77.417c-4.208-1.978-9.35-2.16-13.838-1.005-2.404.561-4.965 1.285-7.063 2.638-1.945 1.135-3.525 2.5-5.002 4.19 1.342-1.701 2.773-3.118 4.623-4.27 2.276-1.416 4.769-2.294 7.364-2.916 4.587-1.126 9.723-.87 13.916 1.363z" fill="#c27b55" stroke-width="none"/><path id="SvgjsPath3825" d="M136.832 78.02c-.88-.352-4.065-1-5.456-1.066-1.687-.082-5.073.125-6.735.424-3.374.608-9.251 2.483-11.678 7.184-.746 1.445-.074 2.456.123 2.675-.3-2.426 4.838-6.746 12.052-7.604 7.52-.894 13.217.743 12.711 2.958-1.222 5.348-6.846 7.013-10.51 7.405-4.099.439-11.684-1.539-12.686-1.753 1.999 1.009 7.524 2.095 9.767 2.303.744.07 2.24.104 2.986.085 5.949-.158 10.169-3.175 11.729-7.26 1.002-2.626-.094-4.469-2.303-5.351z" stroke-width="none"/></g></g><g id="svga-group-facehighlight-single"><path id="SvgjsPath2885" d="M141 113.974c.035 22.622-18.292 40.994-40.938 41.025-22.642.037-41.028-18.273-41.063-40.9-.035-22.62 18.292-41.064 40.937-41.1 22.643-.035 41.031 18.35 41.064 40.975z" fill="url(#SvgjsRadialGradient2886)"/><path id="SvgjsPath2889" d="M137.5 53.999c0 20.711-16.789 37.5-37.499 37.5-20.711 0-37.501-16.789-37.501-37.5s16.79-37.5 37.501-37.5c20.71 0 37.499 16.789 37.499 37.5z" fill="url(#SvgjsRadialGradient2890)"/></g><g id="svga-group-eyebrows-left"><path id="SvgjsPath2910" d="M54 74.189c9.954-9.974 16.761-5.915 30.589-3.264.845.162 6.32 1.539 5.31 3.469-.483.924-2.036.814-2.903.798-13.688-.256-20.344-9.995-32.996-1.003z" fill="#2a232b" stroke-width="none"/></g><g id="svga-group-eyebrows-right"><path id="SvgjsPath2911" d="M146 74.189c-9.953-9.974-16.761-5.915-30.589-3.264-.846.162-6.32 1.539-5.311 3.469.483.924 2.036.814 2.903.798 13.688-.256 20.345-9.995 32.997-1.003z" fill="#2a232b" stroke-width="none"/></g><g id="svga-group-nose-single" stroke-width="none"><path id="SvgjsPath3925" d="M91.115 115.499c-.878 2.064 5.934 4.292 8.519 4.429 2.8.147 10.646-2.9 9.316-4.992-1.399-2.195-6.643-.286-8.906-.286-2.252-.001-7.753-1.905-8.929.849z" fill="#e1ac8f"/><path id="SvgjsPath3926" d="M101.857 117.058c-.23-.759 1.876-1.584 2.657-1.694 1.101-.16 3.36.802 3.158 1.592-.184.698-2.148-.533-2.86-.429-.734.107-2.737 1.242-2.955.531zm-6.883-.247c.968 0 2.404.623 2.668.074.315-.655-2.139-1.461-2.86-1.372-.596.07-2.733 1.315-2.439 1.839.274.481 1.355-.541 2.631-.541z" fill="#c27b55"/><path id="SvgjsPath3927" d="M100.089 111.999c.607 0 1.742-.74 1.792-2.23.201-6.008-.956-23.833-1.792-23.77-.78.059-2.267 17.637-1.948 23.77.079 1.502 1.263 2.23 1.948 2.23z" fill="#fff5ef" opacity=".2"/></g><g id="svga-group-hair-front" stroke-width="none"><path id="SvgjsPath3971" d="M44.974 94.895c-2.423-8.815-3.728-16.533-5.54-24.585l.083-.019c-.686-1.689-3.162-15.06-3.185-15.204-2.525-17.77 4.993-18.784 4.84-26.198 3.165 1.585 6.242.799 9.019-1.365-2.918-1.499-1.997-1.736-5.872-4.095 2.731-.472 4.326.165 6.646.454-1.983-1.983-5.875-6.028-8.404-5.492l-.165-.354c3.661-2.857 8.548 3.091 12.954 1.48C55.483 3.144 79.417-.256 85.242-2.689c7.755-2.951 15.856-9.441 21.553-10.021-3.225 3.241-5.2 8.449-5.347 12.358 4.698-4.486 5.03-4.355 12.151-12.264 0 6.364-1.763 7.163-4.051 10.898 6.211-4.07 13.955-15.489 25.881-17.235l.131.37c-4.298 2.532-7.624 6.804-9.898 12.708 2.257-2.726 5.451-5.683 8.986-6.218l.133.369c-2.215 1.325-6.554 5.742-7.547 13.138 4.381-4.893 11.35-8.948 16.134-10.48l.187.346c-4.392 3.573-6.153 9.828-7.146 15.146 3.08-4.58 4.872-5.624 8.747-7.548-1.247 1.865-1.166 1.539-2.158 3.566 2.396 6.123 10.313 6.361 11.666 17.059 1.63-1.424 2.277-1.781 4.151-3.092l.282.272c-1.408 2.187-2.569 6.06-3.342 8.652 2.78-2.123 7.073-3.687 10.096-4.778l.211.328c-2.551 2.593-5.648 6.546-6.162 10.834 1-.592 1.048-.524 2.35-1.466 0 3.081.105 2.688.127 4.105 1.257-1.125 1.45-1.282 2.276-2.181-.183 32.362-1.845 25.912-6.317 48.466-.784 3.963-2.171 10.883-3.061 14.207l-6.049 1.039c1.87-22.394-.093-17.512 1.267-31.604 2.012-20.779-14.804-37.812-37.025-32.237-4.496 1.128-22.44 1.127-26.934 0-24.547-6.163-33.391 8.18-36.026 33.278-1.291 12.318-1.607 8.161.267 30.563l-5.801-.994z" fill="#2a232b"/><path id="SvgjsPath3972" d="M162.376 34.359c-.021-1.418-.127-1.024-.127-4.105-1.302.941-1.35.874-2.35 1.466.514-4.288 3.611-8.241 6.162-10.834l-.211-.328c-3.022 1.092-7.315 2.655-10.096 4.778.772-2.592 1.934-6.465 3.342-8.652l-.282-.272c-1.874 1.311-2.521 1.668-4.151 3.092-1.353-10.697-9.27-10.936-11.666-17.059.992-2.027.911-1.701 2.158-3.566-3.875 1.924-5.667 2.968-8.747 7.548.993-5.318 2.755-11.573 7.146-15.146l-.187-.346c-4.784 1.532-11.753 5.587-16.134 10.48.993-7.396 5.332-11.813 7.547-13.138l-.133-.369c-3.535.535-6.729 3.493-8.986 6.218 2.274-5.904 5.601-10.176 9.898-12.708l-.131-.37c-11.926 1.746-19.67 13.165-25.881 17.235 2.288-3.735 4.051-4.535 4.051-10.898-7.121 7.909-7.453 7.778-12.151 12.264.146-3.909 2.122-9.118 5.347-12.358-5.696.58-13.797 7.069-21.553 10.021C79.417-.256 55.483 3.144 55.35 19.518c-4.406 1.611-9.293-4.337-12.954-1.48l.165.354c2.529-.537 6.421 3.508 8.404 5.492-2.319-.289-3.915-.926-6.646-.454 3.875 2.359 2.954 2.596 5.872 4.095-2.777 2.164-5.854 2.95-9.019 1.365.153 7.415-7.366 8.429-4.84 26.198.023.144 2.499 13.515 3.185 15.204l-.083.019c1.812 8.052 3.117 15.771 5.54 24.585l.026.003c-.661-16.442-11.02-39.816-4.941-54.788C40.852 38.156 43.92 33 43.92 33s9.627-1.264 10.08-5c0 0-2-1-3-2 2 1 2-2 4-1 0-2-3-1-3-3 2 0 4 0 6 2-1-5 0-10 4-13C72 3 85 4 95-4c-1 5-2 10-2 15 6-3 8-9 13-13 1 4-1 9-1 13 3-7 7-14 16-16-4 4-4 10-4 15 0-4 4-6 5-9v12c2-6 6-9 11-11-4 4-3 8-4 13 3-3 7-4 10-7 3 6 1 11 1 17 1-5 6-8 9-12 1 5 1 10 0 15 1-3 3-5 4-8 0 4.86-.668 9.062-1.98 13.142 1.255-1.452 3.304-2.111 3.98-4.142v12.027c.58-1.192 2.29-1.608 3-3.027-.854 3.413-.254 6.103-.059 9.302.371-1.96 2.258-3.162 2.94-4.967.04-.778.081-1.557.118-2.335.229.912.135 1.664-.118 2.335-.912 17.771-2.593 35.516-6.256 52.628l.648-.111c.89-3.324 2.276-10.244 3.061-14.207 4.473-22.554 6.135-16.104 6.317-48.466-.825.899-1.018 1.056-2.275 2.18z" fill="#3a353a"/><path id="SvgjsPath3973" d="M167.779 19.695c-4.949.834-8.406 2.438-11.05 4.25.385-1.005 2.193-6.67 4.14-9.05-2.99 1.333-4.72 2.763-5.72 3.51 0-1.032-.398-2.224-.59-2.84-.189-.515-.348-1.117-1.271-2.62-5.171-7.296-5.494-4.244-9.729-9.83.772-1.811 1.889-3.572 3.29-5.03-3.908.555-5.965 2.075-8.44 4.51-.04.04-.07.08-.1.12 1.551-6.126 4.59-11.437 10.56-13.43-7.384-.268-16.525 5.192-21.12 10.64 1.984-6.381 4.646-9.421 8.601-12.25-2.846-.421-5.635.742-7.841 2.58 2.541-4.397 6.317-7.899 9.351-9.53-.431-.01-.94-.04-1.5 0-.777-.199-5.479.566-7.16 1.29-8.329 3.252-14.389 10.822-16.99 13.28 1.916-3.098 2.01-5.298 1.66-8.52-.655.563-11.615 11.055-11.75 11.19.777-4.309 2.245-6.937 5.02-10.79-4.947-.926-17.332 7.217-25.01 9.39-8.044 2.179-28.004 6.723-27.09 22.7-4.295.819-10.584-6.077-13.88-.29 2.646-1.57 6.151 2.21 8.59 4.37-1-.163-4.343-.948-5.96.13 1.894.735 3.55 2.932 5.89 4.1.03.01.06.02.09.04-2.139 1.128-4.667 2.034-6.99 1.39-.35-.1-.58-.16-.58-.17-.27-.12-.56-.24-.87-.38h-.01l-.01-.01c-.13-.07-.26-.14-.4-.21.695 5.608-7.817 10.155-6.88 22.02.385 7.301 4.949 29.508 10.686 44.566l.483.144c-2.392-8.626-3.777-16.74-5.569-24.701-.156 0-3.073-15.044-3.1-15.21-2.506-17.631 4.994-18.91 4.85-25.84 3.121 1.561 6.532.436 9.18-1.73-3.118-1.551-2.453-1.988-5.68-3.95 2.163-.374 4.803.483 6.62.6-2.346-2.346-6.299-6.51-8.98-5.94 3.568-2.785 8.497 3.271 13.03 1.46 0-16.383 23.723-19.635 29.77-22.16 7.271-2.766 16.283-9.476 20.939-9.95-2.44 2.458-5.02 7.901-5.02 12.58 4.834-4.638 5.31-4.615 12.16-12.22 0 6.014-2.247 7.088-4.431 10.97 6.414-3.698 14.179-15.828 26.49-17.63-5.154 3.037-8.435 8.325-10.41 13.97 2.352-3.059 5.8-6.53 9.63-7.11-2.009 1.202-6.861 5.782-7.72 13.93 4.345-5.114 11.586-9.346 16.47-10.91-4.605 3.748-6.368 10.371-7.39 16.22 1.687-2.573 3.357-4.897 5.97-6.54.011-.01.03-.02.04-.02 1.029-.699.76-.509 2.521-1.39-.669 1-.731.87-1.79 3.04 2.426 6.377 10.523 6.413 11.729 17.47 1.857-1.647 2.441-1.944 4.42-3.33-1.542 2.394-2.784 6.768-3.55 9.32 2.905-2.485 8.279-4.33 10.54-5.15-3 3.05-5.913 7.096-6.26 11.36.614-.413 1.394-.74 2.39-1.46 0 2.724.13 2.36.13 4.16.526-.481 1.72-1.51 2.271-2.11-.196 31.716-1.88 25.564-6.311 47.91-1.658 8.376-2.533 12.25-3.081 14.283l.428-.087c3.584-10.751 10.737-35.042 10.414-47.616-.033-4.7-1.059-14.5-1.11-15.5-.021.018-2.084 1.97-2.11 1.97 0-.511-.21-2.685-.21-3.87-.353.271-1.095.778-2.09 1.36 1.379-4.163 3.478-6.75 7.4-11.449z"/></g><g id="svga-group-glasses-single" stroke-width="none"><path id="SvgjsPath4025" d="M52.7 78.99c11.69 3.22 28.34-.15 40.03 7.14-.08.44-.16.87-.25 1.31-.64 2.91-3.23 4.82-6.36 5.38-8.44 1.51-22.57 1.32-30.84.74-1.19-.08-2.16-.9-2.36-2-.81-4.36-1.12-8.02-.22-12.57zm53.99 1.36c.05 2.48.32 4.73.83 7.1.63 2.91 3.23 4.82 6.36 5.38 8.44 1.51 22.57 1.32 30.84.74 1.19-.08 2.16-.9 2.36-2 .31-1.69.55-3.28.67-4.85-11.7-8.04-28.85-4.44-40.84-7.71-.14.43-.23.88-.22 1.34z" fill="#fff" opacity=".2"/><path id="SvgjsPath4026" d="M93.31 80.35a37.48 37.48 0 0 1-.58 5.78c-11.69-7.3-28.35-3.92-40.03-7.14.03-.12.04-.24.07-.37.26-1.24 1.34-2.15 2.68-2.28 12.7-1.18 21.35-1.08 33.89-.11 2.27.19 4.02 1.99 3.97 4.12zm53.93-1.72c-.26-1.24-1.34-2.15-2.68-2.28-12.7-1.18-21.35-1.08-33.89-.11-1.78.14-3.22 1.27-3.75 2.78 11.98 3.27 29.14-.33 40.84 7.71.2-2.6.09-5.16-.52-8.1z" fill="#fff" opacity=".4"/><path id="SvgjsPath4027" d="M153 78.74h-5.22c-.02-.07-.02-.14-.04-.21-.3-1.44-1.57-2.52-3.13-2.67-12.9-1.2-21.6-1.07-33.98-.11-.15.01-.29.05-.43.07l.03-.03-.33.08-.28.06c-1.08.24-3.42.7-5.37.76-3.91.12-4.75.11-8.5 0-1.95-.06-4.29-.52-5.37-.76-.09-.03-.18-.04-.28-.06l-.33-.08.03.03c-.14-.02-.28-.06-.43-.07-12.39-.96-21.09-1.09-33.98.11-1.56.15-2.83 1.23-3.13 2.67-.02.07-.02.14-.04.21H47v2.92h4.79c-.17 1.7-.19 3.33-.07 4.97h1.06c-.2-2.54-.09-5.05.51-7.92.21-1.02 1.1-1.78 2.21-1.88 6.3-.59 11.69-.86 16.98-.86 4.97 0 9.99.22 16.81.75 2 .15 3.53 1.74 3.49 3.61-.05 2.2-.28 4.22-.69 6.29h1.07c.39-2.02.62-4.02.67-6.27.01-.66-.13-1.28-.39-1.85.33-.07.85-.16 1.51-.21 2.51-.18 8.07-.14 10.11 0 .66.05 1.19.14 1.51.21-.26.57-.41 1.19-.39 1.85.05 2.25.28 4.25.67 6.27h1.07a35.01 35.01 0 0 1-.68-6.29c-.04-1.87 1.49-3.46 3.49-3.61 6.82-.53 11.84-.75 16.81-.75 5.29 0 10.69.27 16.98.86 1.11.1 2 .86 2.21 1.88.6 2.87.71 5.38.51 7.92h1.05c.13-1.64.1-3.27-.07-4.97H153v-2.92z"/></g></g></g></g><defs id="SvgjsDefs1001"><radialGradient id="SvgjsRadialGradient2886" cx="100" cy="114" r="41" gradientUnits="userSpaceOnUse" class="svga-on-canvas-facehighlight-gradient-single-0"><stop id="SvgjsStop2887" stop-opacity=".5" stop-color="#ffe4d6" offset="0"/><stop id="SvgjsStop2888" stop-opacity="0" stop-color="#f0c7b1" offset=".9"/></radialGradient><radialGradient id="SvgjsRadialGradient2890" cx="100" cy="54" r="37" gradientUnits="userSpaceOnUse" class="svga-on-canvas-facehighlight-gradient-single-1"><stop id="SvgjsStop2891" stop-opacity=".5" stop-color="#ffe4d6" offset="0"/><stop id="SvgjsStop2892" stop-opacity="0" stop-color="#f0c7b1" offset=".9"/></radialGradient><radialGradient id="SvgjsRadialGradient3773" cx="129.041" cy="83.945" r="15.117" gradientTransform="scale(-1 1) rotate(5.981 22.864 -1851.752)" gradientUnits="userSpaceOnUse" class="svga-on-canvas-eyesback-gradient-left-0"><stop id="SvgjsStop3774" stop-color="#fff" offset="0"/><stop id="SvgjsStop3775" stop-color="#fcfdfd" offset=".315"/><stop id="SvgjsStop3776" stop-color="#f4f7f8" offset=".504"/><stop id="SvgjsStop3777" stop-color="#e5ecef" offset=".66"/><stop id="SvgjsStop3778" stop-color="#d8e2e7" offset=".76"/></radialGradient><radialGradient id="SvgjsRadialGradient3780" cx="128.643" cy="83.986" r="15.116" gradientTransform="rotate(5.981 122.87 62.427)" gradientUnits="userSpaceOnUse" class="svga-on-canvas-eyesback-gradient-right-0"><stop id="SvgjsStop3781" stop-color="#fff" offset="0"/><stop id="SvgjsStop3782" stop-color="#fcfdfd" offset=".316"/><stop id="SvgjsStop3783" stop-color="#f4f7f8" offset=".505"/><stop id="SvgjsStop3784" stop-color="#e5ecef" offset=".661"/><stop id="SvgjsStop3785" stop-color="#d8e2e7" offset=".76"/></radialGradient><radialGradient id="SvgjsRadialGradient3787" cx="129.041" cy="83.945" r="15.117" gradientTransform="scale(-1 1) rotate(5.981 22.864 -1851.752)" gradientUnits="userSpaceOnUse" class="svga-on-canvas-eyesfront-gradient-left-0"><stop id="SvgjsStop3788" stop-color="#fff" offset="0"/><stop id="SvgjsStop3789" stop-color="#fcfdfd" offset=".316"/><stop id="SvgjsStop3790" stop-color="#f4f7f8" offset=".505"/><stop id="SvgjsStop3791" stop-color="#e5ecef" offset=".661"/><stop id="SvgjsStop3792" stop-color="#d8e2e7" offset=".76"/></radialGradient><radialGradient id="SvgjsRadialGradient3796" cx="121.986" cy="82.496" fx="133.239" fy="82.527" r="16.003" gradientTransform="matrix(.9998 .0208 .0166 -.7998 -45.32 145.94)" gradientUnits="userSpaceOnUse" class="svga-on-canvas-eyesfront-gradient-left-3"><stop id="SvgjsStop3797" stop-color="#e1ac8f" offset="0"/><stop id="SvgjsStop3798" stop-opacity=".3" stop-color="#e1ac8f" offset=".7"/><stop id="SvgjsStop3799" stop-opacity="0" stop-color="#f0c7b1" offset="1"/></radialGradient><radialGradient id="SvgjsRadialGradient3801" cx="68.931" cy="105.995" r="29.524" gradientTransform="translate(-1.68 1.313) scale(1.0336)" gradientUnits="userSpaceOnUse" class="svga-on-canvas-eyesfront-gradient-left-4"><stop id="SvgjsStop3802" stop-opacity="0" offset=".95"/><stop id="SvgjsStop3803" stop-opacity=".2" offset="1"/></radialGradient><radialGradient id="SvgjsRadialGradient3807" cx="128.643" cy="83.986" r="15.116" gradientTransform="rotate(5.981 122.87 62.427)" gradientUnits="userSpaceOnUse" class="svga-on-canvas-eyesfront-gradient-right-0"><stop id="SvgjsStop3808" stop-color="#fff" offset="0"/><stop id="SvgjsStop3809" stop-color="#fcfdfd" offset=".316"/><stop id="SvgjsStop3810" stop-color="#f4f7f8" offset=".505"/><stop id="SvgjsStop3811" stop-color="#e5ecef" offset=".661"/><stop id="SvgjsStop3812" stop-color="#d8e2e7" offset=".76"/></radialGradient><radialGradient id="SvgjsRadialGradient3816" cx="121.587" cy="82.496" fx="132.839" fy="82.527" r="16.003" gradientTransform="matrix(-.9998 .0208 -.0166 -.7998 244.52 145.948)" gradientUnits="userSpaceOnUse" class="svga-on-canvas-eyesfront-gradient-right-3"><stop id="SvgjsStop3817" stop-color="#e1ac8f" offset="0"/><stop id="SvgjsStop3818" stop-opacity=".3" stop-color="#e1ac8f" offset=".7"/><stop id="SvgjsStop3819" stop-opacity="0" stop-color="#f0c7b1" offset="1"/></radialGradient><radialGradient id="SvgjsRadialGradient3821" cx="69.316" cy="105.995" r="29.524" gradientTransform="matrix(-1.0336 0 0 1.0336 201.68 1.313)" gradientUnits="userSpaceOnUse" class="svga-on-canvas-eyesfront-gradient-right-4"><stop id="SvgjsStop3822" stop-opacity="0" offset=".95"/><stop id="SvgjsStop3823" stop-opacity=".2" offset="1"/></radialGradient><linearGradient id="SvgjsLinearGradient3922" x1="100" y1="172" x2="100" y2="122" gradientUnits="userSpaceOnUse" class="svga-on-canvas-chinshadow-gradient-single-0"><stop id="SvgjsStop3923" stop-opacity=".8" stop-color="#e1ac8f" offset="0"/><stop id="SvgjsStop3924" stop-color="#c27b55" offset=".7"/></linearGradient><linearGradient id="SvgjsLinearGradient3964" x1="100" y1="142" x2="100" y2="139" gradientUnits="userSpaceOnUse" class="svga-on-canvas-mouth-gradient-single-0"><stop id="SvgjsStop3965" stop-color="#e8b9a0" offset=".1"/><stop id="SvgjsStop3966" stop-color="#e1ac8f" offset="1"/></linearGradient><radialGradient id="SvgjsRadialGradient3976" cx="-568.659" cy="-521.042" r="59.751" gradientTransform="matrix(.096 -.0248 .0245 .0961 141.281 119.99)" gradientUnits="userSpaceOnUse" class="svga-on-canvas-eyesiris-gradient-left-1"><stop id="SvgjsStop3977" stop-color="#fff" offset="0"/><stop id="SvgjsStop3978" stop-opacity="0" stop-color="#fff" offset="1"/></radialGradient><radialGradient id="SvgjsRadialGradient3980" cx="-582.838" cy="-519.099" r="59.745" gradientTransform="matrix(.0991 .00089 -.0011 .0991 131.113 135.986)" gradientUnits="userSpaceOnUse" class="svga-on-canvas-eyesiris-gradient-left-2"><stop id="SvgjsStop3981" stop-color="#fff" offset="0"/><stop id="SvgjsStop3982" stop-opacity="0" stop-color="#fff" offset="1"/></radialGradient><linearGradient id="SvgjsLinearGradient3986" x1="122.67" y1="88.268" x2="123.606" y2="87.152" gradientTransform="translate(-52)" gradientUnits="userSpaceOnUse" class="svga-on-canvas-eyesiris-gradient-left-5"><stop id="SvgjsStop3987" stop-color="#fff" offset="0"/><stop id="SvgjsStop3988" stop-opacity="0" stop-color="#fff" offset="1"/></linearGradient><linearGradient id="SvgjsLinearGradient3990" x1="127.212" y1="82.296" x2="126.463" y2="83.189" gradientTransform="translate(-52)" gradientUnits="userSpaceOnUse" class="svga-on-canvas-eyesiris-gradient-left-6"><stop id="SvgjsStop3991" stop-color="#fff" offset="0"/><stop id="SvgjsStop3992" stop-opacity="0" stop-color="#fff" offset="1"/></linearGradient><linearGradient id="SvgjsLinearGradient3994" x1="129.636" y1="79.822" x2="127.91" y2="81.879" gradientTransform="translate(-52)" gradientUnits="userSpaceOnUse" class="svga-on-canvas-eyesiris-gradient-left-7"><stop id="SvgjsStop3995" stop-color="#fff" offset="0"/><stop id="SvgjsStop3996" stop-opacity="0" stop-color="#fff" offset="1"/></linearGradient><radialGradient id="SvgjsRadialGradient3999" cx="-568.654" cy="-521.042" r="59.752" gradientTransform="matrix(.096 -.0248 .0245 .0961 193.28 119.99)" gradientUnits="userSpaceOnUse" class="svga-on-canvas-eyesiris-gradient-right-1"><stop id="SvgjsStop4000" stop-color="#fff" offset="0"/><stop id="SvgjsStop4001" stop-opacity="0" stop-color="#fff" offset="1"/></radialGradient><radialGradient id="SvgjsRadialGradient4003" cx="-582.833" cy="-519.102" r="59.747" gradientTransform="matrix(.0991 .00089 -.0011 .0991 183.113 135.986)" gradientUnits="userSpaceOnUse" class="svga-on-canvas-eyesiris-gradient-right-2"><stop id="SvgjsStop4004" stop-color="#fff" offset="0"/><stop id="SvgjsStop4005" stop-opacity="0" stop-color="#fff" offset="1"/></radialGradient><linearGradient id="SvgjsLinearGradient4009" x1="122.67" y1="88.268" x2="123.606" y2="87.152" gradientUnits="userSpaceOnUse" class="svga-on-canvas-eyesiris-gradient-right-5"><stop id="SvgjsStop4010" stop-color="#fff" offset="0"/><stop id="SvgjsStop4011" stop-opacity="0" stop-color="#fff" offset="1"/></linearGradient><linearGradient id="SvgjsLinearGradient4013" x1="127.212" y1="82.296" x2="126.463" y2="83.189" gradientUnits="userSpaceOnUse" class="svga-on-canvas-eyesiris-gradient-right-6"><stop id="SvgjsStop4014" stop-color="#fff" offset="0"/><stop id="SvgjsStop4015" stop-opacity="0" stop-color="#fff" offset="1"/></linearGradient><linearGradient id="SvgjsLinearGradient4017" x1="129.636" y1="79.822" x2="127.91" y2="81.879" gradientUnits="userSpaceOnUse" class="svga-on-canvas-eyesiris-gradient-right-7"><stop id="SvgjsStop4018" stop-color="#fff" offset="0"/><stop id="SvgjsStop4019" stop-opacity="0" stop-color="#fff" offset="1"/></linearGradient></defs></svg>