<svg xmlns="http://www.w3.org/2000/svg" width="13" height="14"><path d="M10.2 7.5l-4 4q-.1.1-.2.1t-.2-.1L3.6 9.3q-.1-.1-.1-.2t.1-.2l.4-.4q.1-.1.2-.1t.2.1l1.7 1.7 3.5-3.5q.1-.1.2-.1t.2.1l.4.4q.1.1.1.2t-.1.2zM1 13h11V5H1v8zm3-9.5V1.3q0-.1-.1-.2T3.7 1h-.5q-.1 0-.2.1t-.1.2v2.3q0 .1.1.2t.2.1h.5q.1 0 .2-.1t.1-.2zm6 0V1.3q0-.1-.1-.2T9.7 1h-.5q-.1 0-.2.1t-.1.2v2.3q0 .1.1.2t.2.1h.5q.1 0 .2-.1t.1-.2zm3-.5v10q0 .4-.3.7t-.7.3H1q-.4 0-.7-.3T0 13V3q0-.4.3-.7T1 2h1v-.7q0-.5.4-.9t.9-.4h.5q.5 0 .9.4t.4.9v.8h3v-.7q0-.5.4-.9t.9-.4h.5q.5 0 .9.4t.4.9v.8h1q.4 0 .7.3t.3.7z"/></svg>