<svg xmlns="http://www.w3.org/2000/svg" width="12" height="14"><path d="M6 1q1.6 0 3 .8T11.2 4t.8 3q0 2-1.1 3.5t-3 2.2q-.2 0-.3-.1t-.1-.2v-1.7q0-.8-.4-1.1.4 0 .8-.1t.7-.3.6-.5.4-.8.2-1.2q0-.9-.6-1.6.3-.7-.1-1.6-.2-.1-.6.1t-.7.3l-.3.2q-.7-.2-1.5-.2t-1.5.2q-.1-.1-.3-.2t-.7-.3-.7-.1q-.4.9-.1 1.6-.6.7-.6 1.6 0 .7.2 1.2t.4.8.6.5.7.3.8.1q-.3.3-.4.8-.2.1-.4.1t-.4 0-.5-.2-.4-.5q-.1-.2-.4-.4t-.4-.2h-.4v.1q0 .1.1.1t.1.1h.1q.2.1.3.3t.2.4l.1.2q.1.3.3.5t.5.2.5.1.4 0h.2v1.1q0 .1-.1.2t-.3.1q-1.8-.6-3-2.2T-.2 6.9q0-1.6.8-3t2.2-2.2 3-.8zM2.3 9.6q0-.1-.1-.1h-.1q0 .1.1.1h.1zm.2.3q.1 0 0-.1t-.1 0q-.1 0 0 .1t.1 0zm.3.3q.1-.1 0-.1-.1-.1-.1 0-.1 0 0 .1t.1.1zm.3.4q.1-.1 0-.1-.1-.1-.2 0t0 .1q.1.1.2 0zm.4.2q0-.1-.1-.1t-.1.1.1.1h.1zm.5 0q0-.1-.1-.1t-.1.1q0 .1.1.1t.1-.1zm.5-.1q0-.1-.1-.1t-.1.1.1.1.1-.1z"/></svg>