<svg xmlns="http://www.w3.org/2000/svg" width="13" height="14" viewBox="0 0 13 14"><path d="M10.2 7.5l-4 4q-0.1 0.1-0.2 0.1t-0.2-0.1l-2.2-2.2q-0.1-0.1-0.1-0.2t0.1-0.2l0.4-0.4q0.1-0.1 0.2-0.1t0.2 0.1l1.7 1.7 3.5-3.5q0.1-0.1 0.2-0.1t0.2 0.1l0.4 0.4q0.1 0.1 0.1 0.2t-0.1 0.2zM1 13h11v-8h-11v8zM4 3.5v-2.2q0-0.1-0.1-0.2t-0.2-0.1h-0.5q-0.1 0-0.2 0.1t-0.1 0.2v2.3q0 0.1 0.1 0.2t0.2 0.1h0.5q0.1 0 0.2-0.1t0.1-0.2zM10 3.5v-2.2q0-0.1-0.1-0.2t-0.2-0.1h-0.5q-0.1 0-0.2 0.1t-0.1 0.2v2.3q0 0.1 0.1 0.2t0.2 0.1h0.5q0.1 0 0.2-0.1t0.1-0.2zM13 3v10q0 0.4-0.3 0.7t-0.7 0.3h-11q-0.4 0-0.7-0.3t-0.3-0.7v-10q0-0.4 0.3-0.7t0.7-0.3h1v-0.7q0-0.5 0.4-0.9t0.9-0.4h0.5q0.5 0 0.9 0.4t0.4 0.9v0.8h3v-0.7q0-0.5 0.4-0.9t0.9-0.4h0.5q0.5 0 0.9 0.4t0.4 0.9v0.8h1q0.4 0 0.7 0.3t0.3 0.7z"/></svg>