<svg xmlns="http://www.w3.org/2000/svg" width="14" height="14" viewBox="0 0 14 14"><path d="M14 5.5v6.2q0 0.5-0.4 0.9t-0.9 0.4h-11.5q-0.5 0-0.9-0.4t-0.4-0.9v-6.2q0.3 0.4 0.8 0.7 2.8 1.9 3.9 2.7 0.4 0.3 0.7 0.5t0.7 0.4 0.9 0.2h0q0.4 0 0.9-0.2t0.7-0.4 0.7-0.5q1.3-1 3.9-2.7 0.4-0.3 0.8-0.7zM14 3.3q0 0.6-0.4 1.2t-1 1q-2.9 2-3.7 2.5-0.1 0.1-0.3 0.2t-0.4 0.3-0.4 0.3-0.4 0.2-0.4 0.1h0q-0.2 0-0.4-0.1t-0.4-0.2-0.4-0.3-0.4-0.3-0.3-0.2q-0.7-0.5-2-1.4t-1.6-1.1q-0.5-0.3-0.9-0.9t-0.4-1.1q0-0.6 0.3-1t0.9-0.4h11.5q0.5 0 0.9 0.4t0.4 0.9z"/></svg>